<?xml version="1.0" encoding="UTF-8"?>
<!DOCTYPE svg PUBLIC "-//W3C//DTD SVG 1.1//EN" "http://www.w3.org/Graphics/SVG/1.1/DTD/svg11.dtd">
<svg xmlns="http://www.w3.org/2000/svg" version="1.1" width="306px" height="319px" style="shape-rendering:geometricPrecision; text-rendering:geometricPrecision; image-rendering:optimizeQuality; fill-rule:evenodd; clip-rule:evenodd" xmlns:xlink="http://www.w3.org/1999/xlink">
<g><path style="opacity:0.004" fill="#000000" d="M 80.5,20.5 C 81.6009,19.4017 82.9343,19.235 84.5,20C 83.2068,20.49 81.8734,20.6567 80.5,20.5 Z"/></g>
<g><path style="opacity:0.004" fill="#000000" d="M 222.5,20.5 C 226.311,19.3547 230.311,19.1881 234.5,20C 230.514,20.4988 226.514,20.6655 222.5,20.5 Z"/></g>
<g><path style="opacity:0.012" fill="#000000" d="M 54.5,23.5 C 77.3169,23.0113 99.9836,23.5113 122.5,25C 121.833,25.6667 121.167,26.3333 120.5,27C 98.8333,27.6667 77.1667,27.6667 55.5,27C 54.6634,25.9887 54.33,24.8221 54.5,23.5 Z"/></g>
<g><path style="opacity:0.012" fill="#000000" d="M 191.5,23.5 C 214.502,23.3334 237.502,23.5 260.5,24C 261.833,25 261.833,26 260.5,27C 237.833,27.6667 215.167,27.6667 192.5,27C 191.663,25.9887 191.33,24.8221 191.5,23.5 Z"/></g>
<g><path style="opacity:0.004" fill="#000000" d="M 51.5,27.5 C 54.6741,27.9522 55.0075,28.9522 52.5,30.5C 51.6143,29.675 51.281,28.675 51.5,27.5 Z"/></g>
<g><path style="opacity:0.004" fill="#000000" d="M 123.5,28.5 C 124.833,29.1667 124.833,29.1667 123.5,28.5 Z"/></g>
<g><path style="opacity:0.004" fill="#000000" d="M 262.5,28.5 C 265.548,28.494 266.048,29.494 264,31.5C 262.961,30.7562 262.461,29.7562 262.5,28.5 Z"/></g>
<g><path style="opacity:0.122" fill="#f6d3cd" d="M 123.5,40.5 C 122.5,40.5 121.5,40.5 120.5,40.5C 120.662,38.4727 120.495,36.4727 120,34.5C 119.617,33.944 119.117,33.6107 118.5,33.5C 118.167,33.5 117.833,33.5 117.5,33.5C 97.6596,33.1696 77.9929,33.5029 58.5,34.5C 57.5041,34.4142 56.6708,34.7476 56,35.5C 55.8236,38.8818 55.3236,42.2152 54.5,45.5C 53.8281,44.0508 53.1614,42.7175 52.5,41.5C 53.0448,38.1869 53.5448,34.8536 54,31.5C 54.7504,30.8742 55.5838,30.3742 56.5,30C 78.161,28.1971 99.8276,28.1971 121.5,30C 122,30.5 122.5,31 123,31.5C 123.498,34.4816 123.665,37.4816 123.5,40.5 Z"/></g>
<g><path style="opacity:0.01" fill="#000000" d="M 126.5,30.5 C 129.542,31.203 131.209,33.203 131.5,36.5C 130.878,41.8139 130.211,47.1473 129.5,52.5C 127.171,51.2292 126.005,49.2292 126,46.5C 125.219,41.0833 125.385,35.7499 126.5,30.5 Z"/></g>
<g><path style="opacity:0.006" fill="#0f0904" d="M 191.5,30.5 C 191.5,30.8333 191.5,31.1667 191.5,31.5C 191.367,33.9721 191.2,36.6388 191,39.5C 190.617,38.944 190.117,38.6107 189.5,38.5C 189.337,36.1432 189.503,33.8098 190,31.5C 190.383,30.944 190.883,30.6107 191.5,30.5 Z"/></g>
<g><path style="opacity:0.013" fill="#000000" d="M 51.5,41.5 C 50.6618,41.8417 50.3284,42.5084 50.5,43.5C 49.5178,44.1408 48.5178,44.8075 47.5,45.5C 45.5534,41.3738 45.0534,37.0405 46,32.5C 47.4936,31.2528 48.9936,31.2528 50.5,32.5C 51.4066,35.4212 51.7399,38.4212 51.5,41.5 Z"/></g>
<g><path style="opacity:0.012" fill="#0a0302" d="M 187.5,57.5 C 186.167,57.8333 186.167,58.1667 187.5,58.5C 187.666,62.8461 187.499,67.1794 187,71.5C 186.617,72.056 186.117,72.3893 185.5,72.5C 185.666,68.1539 185.499,63.8206 185,59.5C 183.284,60.5523 182.284,59.8856 182,57.5C 181.333,49.8333 181.333,42.1667 182,34.5C 182.595,30.9178 183.929,30.5845 186,33.5C 187.275,41.4467 187.775,49.4467 187.5,57.5 Z"/></g>
<g><path style="opacity:0.35" fill="#f5d0d0" d="M 261.5,31.5 C 261.5,36.1667 261.5,40.8333 261.5,45.5C 259.75,49.1829 259.083,53.1829 259.5,57.5C 258.833,57.5 258.167,57.5 257.5,57.5C 256.596,56.791 256.263,55.791 256.5,54.5C 256.825,47.3134 256.491,40.3134 255.5,33.5C 235.833,33.5 216.167,33.5 196.5,33.5C 195.5,33.5 194.5,33.5 193.5,33.5C 193.5,32.5 193.5,31.5 193.5,30.5C 214.664,28.2344 235.997,28.0677 257.5,30C 259.058,30.21 260.391,30.71 261.5,31.5 Z"/></g>
<g><path style="opacity:0.012" fill="#010000" d="M 261.5,31.5 C 262.117,31.6107 262.617,31.944 263,32.5C 263.784,35.7603 263.617,38.9269 262.5,42C 263.793,42.49 265.127,42.6567 266.5,42.5C 267.654,52.6594 267.154,62.6594 265,72.5C 263.249,70.5101 262.249,68.1768 262,65.5C 261.5,58.8417 261.334,52.175 261.5,45.5C 261.5,40.8333 261.5,36.1667 261.5,31.5 Z"/></g>
<g><path style="opacity:0.006" fill="#000000" d="M 266.5,32.5 C 267.833,32.5 269.167,32.5 270.5,32.5C 269.805,48.4606 268.471,48.4606 266.5,32.5 Z"/></g>
<g><path style="opacity:1" fill="#931e14" d="M 117.5,33.5 C 117.389,34.1174 117.056,34.6174 116.5,35C 112.179,35.499 107.846,35.6657 103.5,35.5C 89.796,35.1627 76.1293,35.6627 62.5,37C 61.1095,38.02 59.6095,38.8534 58,39.5C 57.8091,41.7078 57.3091,43.7078 56.5,45.5C 56.0097,41.5128 56.6764,37.8462 58.5,34.5C 77.9929,33.5029 97.6596,33.1696 117.5,33.5 Z"/></g>
<g><path style="opacity:0.384" fill="#d99a9b" d="M 118.5,33.5 C 119.117,33.6107 119.617,33.944 120,34.5C 120.495,36.4727 120.662,38.4727 120.5,40.5C 121.5,40.5 122.5,40.5 123.5,40.5C 123.5,40.8333 123.5,41.1667 123.5,41.5C 121.577,45.0293 120.911,49.0293 121.5,53.5C 121.167,53.5 120.833,53.5 120.5,53.5C 120.614,50.784 119.614,48.784 117.5,47.5C 117.669,42.8189 118.002,38.1522 118.5,33.5 Z"/></g>
<g><path style="opacity:0.966" fill="#cd1813" d="M 111.5,72.5 C 111.5,77.1667 111.5,81.8333 111.5,86.5C 109.351,97.5981 107.351,108.765 105.5,120C 105.696,121.878 106.029,123.712 106.5,125.5C 105.167,124.833 104.167,123.833 103.5,122.5C 103.274,119.751 103.607,117.084 104.5,114.5C 103.306,112.377 102.64,110.043 102.5,107.5C 103.613,98.1131 105.447,88.7798 108,79.5C 108.867,67.5037 109.2,55.5037 109,43.5C 108.5,43 108,42.5 107.5,42C 95.8653,40.5653 84.1986,40.232 72.5,41C 70.5,41.6667 68.5,42.3333 66.5,43C 65.1666,45.1906 63.5,47.024 61.5,48.5C 61.2865,46.8561 61.6198,45.3561 62.5,44C 64.8877,42.1395 67.5544,40.8061 70.5,40C 82.4789,38.5138 94.4789,38.5138 106.5,40C 108.667,40.8333 110.167,42.3333 111,44.5C 110.357,53.842 110.524,63.1753 111.5,72.5 Z"/></g>
<g><path style="opacity:0.986" fill="#b32724" d="M 117.5,33.5 C 117.833,33.5 118.167,33.5 118.5,33.5C 118.002,38.1522 117.669,42.8189 117.5,47.5C 116.994,53.188 116.328,58.8547 115.5,64.5C 113.305,71.6041 111.972,78.9374 111.5,86.5C 111.5,81.8333 111.5,77.1667 111.5,72.5C 112.609,70.4138 113.276,68.0804 113.5,65.5C 112.768,57.8535 112.268,50.1868 112,42.5C 110.471,41.2713 109.304,39.7713 108.5,38C 106.685,37.2432 105.019,36.4098 103.5,35.5C 107.846,35.6657 112.179,35.499 116.5,35C 117.056,34.6174 117.389,34.1174 117.5,33.5 Z"/></g>
<g><path style="opacity:1" fill="#b71813" d="M 103.5,35.5 C 105.019,36.4098 106.685,37.2432 108.5,38C 109.304,39.7713 110.471,41.2713 112,42.5C 112.268,50.1868 112.768,57.8535 113.5,65.5C 113.276,68.0804 112.609,70.4138 111.5,72.5C 110.524,63.1753 110.357,53.842 111,44.5C 110.167,42.3333 108.667,40.8333 106.5,40C 94.4789,38.5138 82.4789,38.5138 70.5,40C 67.5544,40.8061 64.8877,42.1395 62.5,44C 61.6198,45.3561 61.2865,46.8561 61.5,48.5C 61.5,48.8333 61.5,49.1667 61.5,49.5C 59.9614,55.9324 59.128,62.599 59,69.5C 56.5218,80.5898 53.8552,91.5898 51,102.5C 50.3333,113.167 49.6667,123.833 49,134.5C 48.2945,138.963 46.6278,142.963 44,146.5C 43.6667,148.833 43.3333,151.167 43,153.5C 42.6174,152.944 42.1174,152.611 41.5,152.5C 41.7526,148.96 42.4192,145.627 43.5,142.5C 45.5237,136.19 47.1904,129.523 48.5,122.5C 49.2665,111.502 49.9332,100.502 50.5,89.5C 51.896,86.3134 53.0627,82.98 54,79.5C 54.4996,72.8417 54.6663,66.175 54.5,59.5C 55.2735,54.9714 55.9401,50.3047 56.5,45.5C 57.3091,43.7078 57.8091,41.7078 58,39.5C 59.6095,38.8534 61.1095,38.02 62.5,37C 76.1293,35.6627 89.796,35.1627 103.5,35.5 Z"/></g>
<g><path style="opacity:0.082" fill="#834c39" d="M 191.5,31.5 C 192.643,34.9758 192.81,38.6425 192,42.5C 191.583,43.756 190.75,44.4226 189.5,44.5C 189.5,42.5 189.5,40.5 189.5,38.5C 190.117,38.6107 190.617,38.944 191,39.5C 191.2,36.6388 191.367,33.9721 191.5,31.5 Z"/></g>
<g><path style="opacity:0.012" fill="#020100" d="M 47.5,74.5 C 46.1667,74.8333 46.1667,75.1667 47.5,75.5C 47.6633,77.8568 47.4966,80.1902 47,82.5C 46.6174,83.056 46.1174,83.3893 45.5,83.5C 45.6633,81.1432 45.4966,78.8098 45,76.5C 43.6054,77.8146 42.6054,77.4812 42,75.5C 41.0235,64.742 41.5235,54.0753 43.5,43.5C 44.8064,44.9122 45.6397,46.5789 46,48.5C 47.252,57.1202 47.752,65.7868 47.5,74.5 Z"/></g>
<g><path style="opacity:0.475" fill="#daa79a" d="M 191.5,31.5 C 191.5,31.1667 191.5,30.8333 191.5,30.5C 192.167,30.5 192.833,30.5 193.5,30.5C 193.5,31.5 193.5,32.5 193.5,33.5C 194.5,33.5 195.5,33.5 196.5,33.5C 194.93,35.8511 194.097,38.5177 194,41.5C 192.315,61.2487 190.148,80.9154 187.5,100.5C 204.5,100.5 221.5,100.5 238.5,100.5C 241.5,100.5 244.5,100.5 247.5,100.5C 227.098,101.831 206.598,101.831 186,100.5C 185.51,101.793 185.343,103.127 185.5,104.5C 207.167,103.167 228.833,103.167 250.5,104.5C 250.5,105.167 250.167,105.5 249.5,105.5C 227.5,105.5 205.5,105.5 183.5,105.5C 183.5,99.5 183.5,93.5 183.5,87.5C 183.5,86.8333 183.5,86.1667 183.5,85.5C 184.268,84.7375 184.768,83.7375 185,82.5C 185.498,79.1832 185.665,75.8499 185.5,72.5C 186.117,72.3893 186.617,72.056 187,71.5C 187.499,67.1794 187.666,62.8461 187.5,58.5C 187.5,58.1667 187.5,57.8333 187.5,57.5C 188.268,56.7375 188.768,55.7375 189,54.5C 189.498,51.1832 189.665,47.8499 189.5,44.5C 190.75,44.4226 191.583,43.756 192,42.5C 192.81,38.6425 192.643,34.9758 191.5,31.5 Z"/></g>
<g><path style="opacity:0.012" fill="#090100" d="M 123.5,41.5 C 123.784,44.7766 123.451,47.9433 122.5,51C 123.793,51.49 125.127,51.6567 126.5,51.5C 126.749,54.0021 127.083,56.5021 127.5,59C 127.1,65.9882 126.267,72.8216 125,79.5C 123.438,77.0427 122.438,74.376 122,71.5C 121.501,65.5092 121.334,59.5092 121.5,53.5C 120.911,49.0293 121.577,45.0293 123.5,41.5 Z"/></g>
<g><path style="opacity:0.049" fill="#3b221d" d="M 51.5,41.5 C 51.8333,41.5 52.1667,41.5 52.5,41.5C 52.5,46.5 52.5,51.5 52.5,56.5C 51.5,56.5 50.5,56.5 49.5,56.5C 49.2941,52.1018 49.6274,47.7685 50.5,43.5C 51.3382,43.1583 51.6716,42.4916 51.5,41.5 Z"/></g>
<g><path style="opacity:0.4" fill="#eab9a9" d="M 58.5,34.5 C 56.6764,37.8462 56.0097,41.5128 56.5,45.5C 55.9401,50.3047 55.2735,54.9714 54.5,59.5C 53.8333,61.5 53.1667,63.5 52.5,65.5C 52.5,63.1667 52.5,60.8333 52.5,58.5C 51.5,58.5 50.5,58.5 49.5,58.5C 49.5,57.8333 49.5,57.1667 49.5,56.5C 50.5,56.5 51.5,56.5 52.5,56.5C 52.5,51.5 52.5,46.5 52.5,41.5C 53.1614,42.7175 53.8281,44.0508 54.5,45.5C 55.3236,42.2152 55.8236,38.8818 56,35.5C 56.6708,34.7476 57.5041,34.4142 58.5,34.5 Z"/></g>
<g><path style="opacity:0.012" fill="#000000" d="M 183.5,85.5 C 182.662,85.8417 182.328,86.5084 182.5,87.5C 181.417,87.5394 180.417,87.8728 179.5,88.5C 178.808,87.9747 178.308,87.3081 178,86.5C 177.06,77.0721 177.56,67.7388 179.5,58.5C 180.584,59.6651 181.417,60.9984 182,62.5C 183.205,70.1194 183.705,77.786 183.5,85.5 Z"/></g>
<g><path style="opacity:0.122" fill="#fad0ce" d="M 117.5,47.5 C 119.614,48.784 120.614,50.784 120.5,53.5C 119.6,58.772 119.267,64.1053 119.5,69.5C 118.5,69.5 117.5,69.5 116.5,69.5C 115.549,68.0813 115.216,66.4147 115.5,64.5C 116.328,58.8547 116.994,53.188 117.5,47.5 Z"/></g>
<g><path style="opacity:0.057" fill="#2b0601" d="M 257.5,57.5 C 258.167,57.5 258.833,57.5 259.5,57.5C 259.717,62.2303 259.383,66.8969 258.5,71.5C 258.167,71.5 257.833,71.5 257.5,71.5C 257.5,66.8333 257.5,62.1667 257.5,57.5 Z"/></g>
<g><path style="opacity:0.129" fill="#fff0e1" d="M 49.5,58.5 C 50.5,58.5 51.5,58.5 52.5,58.5C 52.5,60.8333 52.5,63.1667 52.5,65.5C 52.5,65.8333 52.5,66.1667 52.5,66.5C 51.8339,69.6893 51.1672,73.0227 50.5,76.5C 49.8165,76.1373 49.1499,75.8039 48.5,75.5C 48.1667,75.5 47.8333,75.5 47.5,75.5C 47.5,75.1667 47.5,74.8333 47.5,74.5C 48.2216,74.0825 48.7216,73.4158 49,72.5C 49.4992,67.8452 49.6658,63.1785 49.5,58.5 Z"/></g>
<g><path style="opacity:0.602" fill="#d78883" d="M 256.5,54.5 C 256.263,55.791 256.596,56.791 257.5,57.5C 257.5,62.1667 257.5,66.8333 257.5,71.5C 257.5,71.8333 257.5,72.1667 257.5,72.5C 256.907,69.5 256.074,66.5 255,63.5C 253.932,68.9058 253.099,74.2392 252.5,79.5C 252.5,74.8333 252.5,70.1667 252.5,65.5C 253.787,62.302 254.453,58.9686 254.5,55.5C 255.167,55.1667 255.833,54.8333 256.5,54.5 Z"/></g>
<g><path style="opacity:0.012" fill="#000000" d="M 119.5,70.5 C 119.756,72.7925 119.423,74.9592 118.5,77C 119.793,77.49 121.127,77.6567 122.5,77.5C 123.5,86.1868 123.167,94.8535 121.5,103.5C 119.171,102.229 118.005,100.229 118,97.5C 117.501,91.5092 117.334,85.5092 117.5,79.5C 117.5,79.1667 117.5,78.8333 117.5,78.5C 117.294,75.5049 117.96,72.8383 119.5,70.5 Z"/></g>
<g><path style="opacity:0.013" fill="#000000" d="M 257.5,73.5 C 257.5,73.1667 257.5,72.8333 257.5,72.5C 258.167,72.5 258.5,72.1667 258.5,71.5C 259.688,70.3157 260.855,70.3157 262,71.5C 263.892,80.9842 263.558,90.3175 261,99.5C 260,97.8333 259,96.1667 258,94.5C 257.5,87.5079 257.334,80.5079 257.5,73.5 Z"/></g>
<g><path style="opacity:0.875" fill="#aa402f" d="M 54.5,59.5 C 54.6663,66.175 54.4996,72.8417 54,79.5C 53.0627,82.98 51.896,86.3134 50.5,89.5C 51.1667,81.8333 51.8333,74.1667 52.5,66.5C 52.5,66.1667 52.5,65.8333 52.5,65.5C 53.1667,63.5 53.8333,61.5 54.5,59.5 Z"/></g>
<g><path style="opacity:0.965" fill="#a4261b" d="M 196.5,33.5 C 216.167,33.5 235.833,33.5 255.5,33.5C 239.531,35.3218 223.197,36.1551 206.5,36C 202.366,36.7612 198.7,38.2612 195.5,40.5C 194.295,50.7671 193.462,61.1004 193,71.5C 192.333,79.5 192.333,87.5 193,95.5C 194.167,96.6667 195.333,97.8333 196.5,99C 210.673,99.1689 224.673,99.6689 238.5,100.5C 221.5,100.5 204.5,100.5 187.5,100.5C 190.148,80.9154 192.315,61.2487 194,41.5C 194.097,38.5177 194.93,35.8511 196.5,33.5 Z"/></g>
<g><path style="opacity:0.011" fill="#030101" d="M 43.5,102.5 C 42.1667,102.833 42.1667,103.167 43.5,103.5C 43.5,106.167 43.5,108.833 43.5,111.5C 42.8333,111.5 42.1667,111.5 41.5,111.5C 41.6633,109.143 41.4966,106.81 41,104.5C 39.2835,105.552 38.2835,104.886 38,102.5C 37.0713,93.4046 37.5713,84.4046 39.5,75.5C 40.5836,76.6651 41.4169,77.9984 42,79.5C 43.2054,87.1194 43.7054,94.786 43.5,102.5 Z"/></g>
<g><path style="opacity:0.059" fill="#7b4e4c" d="M 116.5,69.5 C 117.5,69.5 118.5,69.5 119.5,69.5C 119.5,69.8333 119.5,70.1667 119.5,70.5C 117.96,72.8383 117.294,75.5049 117.5,78.5C 116.662,78.1583 116.328,77.4916 116.5,76.5C 116.5,74.1667 116.5,71.8333 116.5,69.5 Z"/></g>
<g><path style="opacity:0.359" fill="#edb9ac" d="M 52.5,66.5 C 51.8333,74.1667 51.1667,81.8333 50.5,89.5C 49.8333,91.1667 49.1667,92.8333 48.5,94.5C 48.7845,92.5853 48.4511,90.9187 47.5,89.5C 48.441,84.9296 48.7744,80.263 48.5,75.5C 49.1499,75.8039 49.8165,76.1373 50.5,76.5C 51.1672,73.0227 51.8339,69.6893 52.5,66.5 Z"/></g>
<g><path style="opacity:0.031" fill="#fde4e2" d="M 116.5,76.5 C 116.328,77.4916 116.662,78.1583 117.5,78.5C 117.5,78.8333 117.5,79.1667 117.5,79.5C 116.732,80.2625 116.232,81.2625 116,82.5C 115.502,85.8168 115.335,89.1501 115.5,92.5C 114.188,90.2568 113.522,87.5902 113.5,84.5C 113.421,81.0454 113.921,77.7121 115,74.5C 115.278,75.4158 115.778,76.0825 116.5,76.5 Z"/></g>
<g><path style="opacity:0.007" fill="#000000" d="M 174.5,86.5 C 176.136,87.7489 177.303,89.4156 178,91.5C 178.667,95.1667 178.667,98.8333 178,102.5C 177.692,103.308 177.192,103.975 176.5,104.5C 174.548,102.663 173.548,100.329 173.5,97.5C 174.246,93.8683 174.579,90.2017 174.5,86.5 Z"/></g>
<g><path style="opacity:0.208" fill="#97665d" d="M 47.5,75.5 C 47.8333,75.5 48.1667,75.5 48.5,75.5C 48.7744,80.263 48.441,84.9296 47.5,89.5C 46.8333,89.5 46.1667,89.5 45.5,89.5C 45.5,87.5 45.5,85.5 45.5,83.5C 46.1174,83.3893 46.6174,83.056 47,82.5C 47.4966,80.1902 47.6633,77.8568 47.5,75.5 Z"/></g>
<g><path style="opacity:0.006" fill="#150906" d="M 182.5,87.5 C 182.833,87.5 183.167,87.5 183.5,87.5C 183.5,93.5 183.5,99.5 183.5,105.5C 205.5,105.5 227.5,105.5 249.5,105.5C 249.082,106.222 248.416,106.722 247.5,107C 226.5,107.667 205.5,107.667 184.5,107C 183.333,106.5 182.5,105.667 182,104.5C 181.215,98.7507 181.382,93.084 182.5,87.5 Z"/></g>
<g><path style="opacity:0.322" fill="#eea6a3" d="M 115.5,64.5 C 115.216,66.4147 115.549,68.0813 116.5,69.5C 116.5,71.8333 116.5,74.1667 116.5,76.5C 115.778,76.0825 115.278,75.4158 115,74.5C 113.921,77.7121 113.421,81.0454 113.5,84.5C 113.522,87.5902 114.188,90.2568 115.5,92.5C 115.5,92.8333 115.5,93.1667 115.5,93.5C 113.631,95.6353 112.964,98.3019 113.5,101.5C 113.5,102.5 113.5,103.5 113.5,104.5C 113.167,104.5 112.833,104.5 112.5,104.5C 112.664,101.813 112.497,99.146 112,96.5C 110.018,103.022 108.851,109.689 108.5,116.5C 109.5,116.5 110.5,116.5 111.5,116.5C 111.5,116.833 111.5,117.167 111.5,117.5C 109.824,118.183 109.157,119.517 109.5,121.5C 110.209,122.404 111.209,122.737 112.5,122.5C 112.5,122.833 112.5,123.167 112.5,123.5C 111.082,125.308 109.082,125.975 106.5,125.5C 106.029,123.712 105.696,121.878 105.5,120C 107.351,108.765 109.351,97.5981 111.5,86.5C 111.972,78.9374 113.305,71.6041 115.5,64.5 Z"/></g>
<g><path style="opacity:0.102" fill="#804e4b" d="M 255.5,89.5 C 255.5,90.5 255.5,91.5 255.5,92.5C 254.883,92.6107 254.383,92.944 254,93.5C 253.505,95.4727 253.338,97.4727 253.5,99.5C 253.167,99.5 252.833,99.5 252.5,99.5C 252.336,96.8127 252.503,94.146 253,91.5C 253.417,90.244 254.25,89.5774 255.5,89.5 Z"/></g>
<g><path style="opacity:0.007" fill="#020000" d="M 255.5,92.5 C 255.714,94.1439 255.38,95.6439 254.5,97C 255.793,97.49 257.127,97.6567 258.5,97.5C 259.084,100.983 258.251,103.983 256,106.5C 254.097,104.559 253.264,102.226 253.5,99.5C 253.338,97.4727 253.505,95.4727 254,93.5C 254.383,92.944 254.883,92.6107 255.5,92.5 Z"/></g>
<g><path style="opacity:0.039" fill="#410f0d" d="M 115.5,93.5 C 115.806,96.3854 115.473,99.0521 114.5,101.5C 114.167,101.5 113.833,101.5 113.5,101.5C 112.964,98.3019 113.631,95.6353 115.5,93.5 Z"/></g>
<g><path style="opacity:1" fill="#c51411" d="M 254.5,55.5 C 254.453,58.9686 253.787,62.302 252.5,65.5C 251.778,65.9175 251.278,66.5842 251,67.5C 250.588,74.525 249.921,81.525 249,88.5C 245.734,92.755 241.568,95.9217 236.5,98C 223.5,98.6667 210.5,98.6667 197.5,98C 196.54,96.5806 195.707,95.0806 195,93.5C 193.084,76.3974 194.751,59.7307 200,43.5C 202.922,40.9065 206.422,39.4065 210.5,39C 225.037,37.6276 239.37,38.6276 253.5,42C 255.84,46.2532 256.173,50.7532 254.5,55.5 Z"/></g>
<g><path style="opacity:0.994" fill="#d9110d" d="M 211.5,40.5 C 222.881,40.1445 234.215,40.6445 245.5,42C 247.041,43.5793 248.208,45.4127 249,47.5C 248.233,61.9725 246.399,76.3058 243.5,90.5C 237.822,95.8822 230.989,98.2155 223,97.5C 218.191,97.538 213.524,96.8714 209,95.5C 205.491,96.766 201.991,96.5993 198.5,95C 197.299,94.0975 196.465,92.9308 196,91.5C 195.333,82.8333 195.333,74.1667 196,65.5C 197.628,59.645 198.962,53.645 200,47.5C 200.346,45.1523 201.513,43.3189 203.5,42C 206.365,41.8171 209.031,41.3171 211.5,40.5 Z"/></g>
<g><path style="opacity:1" fill="#e81109" d="M 225.5,41.5 C 230.803,42.2253 236.136,42.8919 241.5,43.5C 243.58,43.6858 245.08,44.6858 246,46.5C 245.431,60.2192 244.098,73.8859 242,87.5C 236.127,92.0138 229.46,94.3471 222,94.5C 214.023,93.4416 206.19,91.7749 198.5,89.5C 197.372,82.8843 197.205,76.2177 198,69.5C 199.556,62.6759 200.723,56.0092 201.5,49.5C 203.04,47.6132 204.707,45.7799 206.5,44C 212.977,43.1379 219.311,42.3046 225.5,41.5 Z"/></g>
<g><path style="opacity:1" fill="#f10f04" d="M 221.5,45.5 C 228.075,45.3012 234.408,46.4678 240.5,49C 241.167,50.6667 241.833,52.3333 242.5,54C 241.661,61.3287 241.161,68.8287 241,76.5C 237.648,78.4293 236.315,81.0959 237,84.5C 235.667,86.1667 234.333,87.8333 233,89.5C 227.642,89.5224 222.142,89.3558 216.5,89C 214.413,88.2078 212.579,87.0412 211,85.5C 210,86.5 209,87.5 208,88.5C 207.085,84.1379 204.918,81.4712 201.5,80.5C 200.341,76.878 200.175,73.2113 201,69.5C 201.419,68.3279 202.085,67.3279 203,66.5C 204.073,60.9333 205.073,55.6 206,50.5C 210.985,47.8926 216.152,46.226 221.5,45.5 Z"/></g>
<g><path style="opacity:0.984" fill="#b41d16" d="M 255.5,33.5 C 256.491,40.3134 256.825,47.3134 256.5,54.5C 255.833,54.8333 255.167,55.1667 254.5,55.5C 256.173,50.7532 255.84,46.2532 253.5,42C 239.37,38.6276 225.037,37.6276 210.5,39C 206.422,39.4065 202.922,40.9065 200,43.5C 194.751,59.7307 193.084,76.3974 195,93.5C 195.707,95.0806 196.54,96.5806 197.5,98C 210.5,98.6667 223.5,98.6667 236.5,98C 241.568,95.9217 245.734,92.755 249,88.5C 249.921,81.525 250.588,74.525 251,67.5C 251.278,66.5842 251.778,65.9175 252.5,65.5C 252.5,70.1667 252.5,74.8333 252.5,79.5C 251.722,86.8001 250.055,93.8001 247.5,100.5C 244.5,100.5 241.5,100.5 238.5,100.5C 224.673,99.6689 210.673,99.1689 196.5,99C 195.333,97.8333 194.167,96.6667 193,95.5C 192.333,87.5 192.333,79.5 193,71.5C 193.462,61.1004 194.295,50.7671 195.5,40.5C 198.7,38.2612 202.366,36.7612 206.5,36C 223.197,36.1551 239.531,35.3218 255.5,33.5 Z"/></g>
<g><path style="opacity:0.017" fill="#000000" d="M 113.5,101.5 C 113.833,101.5 114.167,101.5 114.5,101.5C 115.568,102.434 116.901,102.768 118.5,102.5C 119.674,106.847 119.674,111.181 118.5,115.5C 162.857,115.823 207.19,115.49 251.5,114.5C 256.803,115.236 262.137,115.736 267.5,116C 266.5,117 265.5,118 264.5,119C 214.167,119.667 163.833,119.667 113.5,119C 113.336,114.318 113.336,109.485 113.5,104.5C 113.5,103.5 113.5,102.5 113.5,101.5 Z"/></g>
<g><path style="opacity:0.32" fill="#fcdbd7" d="M 257.5,72.5 C 257.5,72.8333 257.5,73.1667 257.5,73.5C 256.732,74.2625 256.232,75.2625 256,76.5C 255.501,80.8206 255.334,85.1539 255.5,89.5C 254.25,89.5774 253.417,90.244 253,91.5C 252.503,94.146 252.336,96.8127 252.5,99.5C 252.598,101.553 251.931,103.22 250.5,104.5C 228.833,103.167 207.167,103.167 185.5,104.5C 185.343,103.127 185.51,101.793 186,100.5C 206.598,101.831 227.098,101.831 247.5,100.5C 250.055,93.8001 251.722,86.8001 252.5,79.5C 253.099,74.2392 253.932,68.9058 255,63.5C 256.074,66.5 256.907,69.5 257.5,72.5 Z"/></g>
<g><path style="opacity:0.012" fill="#010101" d="M 39.5,131.5 C 38.1667,131.833 38.1667,132.167 39.5,132.5C 38.5676,133.687 38.5676,135.02 39.5,136.5C 39.2528,137.713 38.5862,138.38 37.5,138.5C 37.5,136.833 37.5,135.167 37.5,133.5C 35.8762,133.64 34.7096,132.973 34,131.5C 33.06,122.072 33.56,112.739 35.5,103.5C 36.5836,104.665 37.4169,105.998 38,107.5C 39.2227,115.453 39.7227,123.453 39.5,131.5 Z"/></g>
<g><path style="opacity:0.176" fill="#fbd9d9" d="M 112.5,104.5 C 111.728,108.452 111.395,112.452 111.5,116.5C 110.5,116.5 109.5,116.5 108.5,116.5C 108.851,109.689 110.018,103.022 112,96.5C 112.497,99.146 112.664,101.813 112.5,104.5 Z"/></g>
<g><path style="opacity:0.004" fill="#000000" d="M 248.5,108.5 C 254.186,108.005 254.686,109.005 250,111.5C 248.961,110.756 248.461,109.756 248.5,108.5 Z"/></g>
<g><path style="opacity:0.004" fill="#000000" d="M 221.5,110.5 C 226.985,109.348 232.651,109.182 238.5,110C 232.843,110.499 227.176,110.666 221.5,110.5 Z"/></g>
<g><path style="opacity:0.392" fill="#f3cfc0" d="M 45.5,89.5 C 46.1667,89.5 46.8333,89.5 47.5,89.5C 48.4511,90.9187 48.7845,92.5853 48.5,94.5C 48.0924,100.535 47.4257,106.535 46.5,112.5C 44.89,109.797 43.89,106.797 43.5,103.5C 43.5,103.167 43.5,102.833 43.5,102.5C 44.2679,101.737 44.7679,100.737 45,99.5C 45.4983,96.1832 45.665,92.8499 45.5,89.5 Z"/></g>
<g><path style="opacity:0.055" fill="#67221a" d="M 41.5,111.5 C 42.1667,111.5 42.8333,111.5 43.5,111.5C 43.8432,113.483 43.1765,114.817 41.5,115.5C 41.5,114.167 41.5,112.833 41.5,111.5 Z"/></g>
<g><path style="opacity:0.051" fill="#5e0b09" d="M 111.5,117.5 C 111.34,119.153 110.674,120.486 109.5,121.5C 109.157,119.517 109.824,118.183 111.5,117.5 Z"/></g>
<g><path style="opacity:0.004" fill="#000000" d="M 266.5,119.5 C 269.797,119.329 270.131,119.995 267.5,121.5C 266.702,121.043 266.369,120.376 266.5,119.5 Z"/></g>
<g><path style="opacity:0.986" fill="#a83221" d="M 50.5,89.5 C 49.9332,100.502 49.2665,111.502 48.5,122.5C 47.1904,129.523 45.5237,136.19 43.5,142.5C 44.2072,132.469 45.2072,122.469 46.5,112.5C 47.4257,106.535 48.0924,100.535 48.5,94.5C 49.1667,92.8333 49.8333,91.1667 50.5,89.5 Z"/></g>
<g><path style="opacity:0.019" fill="#410002" d="M 229.5,122.5 C 237.833,122.5 246.167,122.5 254.5,122.5C 257.833,123.167 261.167,123.833 264.5,124.5C 252.622,124.855 240.955,124.188 229.5,122.5 Z"/></g>
<g><path style="opacity:0.086" fill="#360500" d="M 112.5,123.5 C 112.5,123.167 112.5,122.833 112.5,122.5C 138.5,122.5 164.5,122.5 190.5,122.5C 188.708,123.309 186.708,123.809 184.5,124C 160.791,124.813 137.124,124.646 113.5,123.5C 113.167,123.5 112.833,123.5 112.5,123.5 Z"/></g>
<g><path style="opacity:0.122" fill="#fff3e9" d="M 192.5,122.5 C 202.167,122.5 211.833,122.5 221.5,122.5C 222.091,123.151 222.757,123.818 223.5,124.5C 218.333,124.833 213.167,125.167 208,125.5C 202.454,125.495 197.288,124.828 192.5,123.5C 192.5,123.167 192.5,122.833 192.5,122.5 Z"/></g>
<g><path style="opacity:0.011" fill="#120504" d="M 254.5,122.5 C 260.845,122.653 267.178,122.986 273.5,123.5C 273.169,125.322 272.502,126.989 271.5,128.5C 269.77,127.974 268.436,126.974 267.5,125.5C 266.791,124.596 265.791,124.263 264.5,124.5C 261.167,123.833 257.833,123.167 254.5,122.5 Z"/></g>
<g><path style="opacity:0.235" fill="#8e312c" d="M 190.5,122.5 C 191.167,122.5 191.833,122.5 192.5,122.5C 192.5,122.833 192.5,123.167 192.5,123.5C 191.5,123.833 190.833,124.5 190.5,125.5C 165.164,125.667 139.831,125.5 114.5,125C 113.944,124.617 113.611,124.117 113.5,123.5C 137.124,124.646 160.791,124.813 184.5,124C 186.708,123.809 188.708,123.309 190.5,122.5 Z"/></g>
<g><path style="opacity:0.3" fill="#932b30" d="M 224.5,123.5 C 224.5,123.167 224.5,122.833 224.5,122.5C 226.167,122.5 227.833,122.5 229.5,122.5C 240.955,124.188 252.622,124.855 264.5,124.5C 265.791,124.263 266.791,124.596 267.5,125.5C 265.167,125.5 262.833,125.5 260.5,125.5C 248.249,126.114 236.249,125.447 224.5,123.5 Z"/></g>
<g><path style="opacity:0.545" fill="#efb7ae" d="M 221.5,122.5 C 222.5,122.5 223.5,122.5 224.5,122.5C 224.5,122.833 224.5,123.167 224.5,123.5C 224.5,124.5 224.5,125.5 224.5,126.5C 213.167,126.5 201.833,126.5 190.5,126.5C 190.5,126.167 190.5,125.833 190.5,125.5C 190.833,124.5 191.5,123.833 192.5,123.5C 197.288,124.828 202.454,125.495 208,125.5C 213.167,125.167 218.333,124.833 223.5,124.5C 222.757,123.818 222.091,123.151 221.5,122.5 Z"/></g>
<g><path style="opacity:0.6" fill="#fa7f74" d="M 112.5,123.5 C 112.833,123.5 113.167,123.5 113.5,123.5C 113.611,124.117 113.944,124.617 114.5,125C 139.831,125.5 165.164,125.667 190.5,125.5C 190.5,125.833 190.5,126.167 190.5,126.5C 189.833,126.5 189.5,126.833 189.5,127.5C 182.646,127.176 175.979,127.509 169.5,128.5C 149.818,128.713 130.152,128.38 110.5,127.5C 109.041,127.567 107.708,127.234 106.5,126.5C 106.5,126.167 106.5,125.833 106.5,125.5C 109.082,125.975 111.082,125.308 112.5,123.5 Z"/></g>
<g><path style="opacity:0.704" fill="#e96463" d="M 224.5,123.5 C 236.249,125.447 248.249,126.114 260.5,125.5C 260.833,126.167 261.167,126.833 261.5,127.5C 237.5,127.5 213.5,127.5 189.5,127.5C 189.5,126.833 189.833,126.5 190.5,126.5C 201.833,126.5 213.167,126.5 224.5,126.5C 224.5,125.5 224.5,124.5 224.5,123.5 Z"/></g>
<g><path style="opacity:0.015" fill="#000000" d="M 286.5,143.5 C 286.167,143.5 285.833,143.5 285.5,143.5C 285.262,141.596 284.262,140.262 282.5,139.5C 282.167,139.5 281.833,139.5 281.5,139.5C 281.5,138.833 281.167,138.5 280.5,138.5C 280.573,136.973 279.906,135.973 278.5,135.5C 278.167,135.5 277.833,135.5 277.5,135.5C 277.5,134.833 277.167,134.5 276.5,134.5C 276.5,133.167 275.833,132.5 274.5,132.5C 274.5,131.833 274.167,131.5 273.5,131.5C 272.831,127.324 274.331,125.991 278,127.5C 278.49,128.793 278.657,130.127 278.5,131.5C 279.833,131.5 281.167,131.5 282.5,131.5C 282.5,132.833 282.5,134.167 282.5,135.5C 283.833,135.5 285.167,135.5 286.5,135.5C 286.5,136.833 286.5,138.167 286.5,139.5C 288.665,139.116 290.332,139.783 291.5,141.5C 290.332,143.217 288.665,143.884 286.5,143.5 Z"/></g>
<g><path style="opacity:0.863" fill="#f45b4d" d="M 110.5,127.5 C 130.152,128.38 149.818,128.713 169.5,128.5C 153.675,129.496 137.675,129.83 121.5,129.5C 117.613,129.354 113.946,128.687 110.5,127.5 Z"/></g>
<g><path style="opacity:0.082" fill="#f8cfd2" d="M 260.5,125.5 C 262.833,125.5 265.167,125.5 267.5,125.5C 268.436,126.974 269.77,127.974 271.5,128.5C 271.427,130.027 272.094,131.027 273.5,131.5C 274.167,131.5 274.5,131.833 274.5,132.5C 274.833,133.5 275.5,134.167 276.5,134.5C 277.167,134.5 277.5,134.833 277.5,135.5C 277.833,135.5 278.167,135.5 278.5,135.5C 278.427,137.027 279.094,138.027 280.5,138.5C 281.167,138.5 281.5,138.833 281.5,139.5C 281.833,139.5 282.167,139.5 282.5,139.5C 282.738,141.404 283.738,142.738 285.5,143.5C 285.833,143.5 286.167,143.5 286.5,143.5C 287.167,144.833 288.167,145.833 289.5,146.5C 290.167,147.833 291.167,148.833 292.5,149.5C 292.167,152.167 291.833,154.833 291.5,157.5C 290.833,157.833 290.167,158.167 289.5,158.5C 287.738,159.262 286.738,160.596 286.5,162.5C 286.167,162.5 285.833,162.5 285.5,162.5C 284.5,163.167 283.5,163.833 282.5,164.5C 281.761,164.631 281.094,164.464 280.5,164C 282.141,162.871 283.141,161.371 283.5,159.5C 284.026,157.77 285.026,156.436 286.5,155.5C 288.273,154.686 288.773,153.352 288,151.5C 286.629,149.959 285.129,148.625 283.5,147.5C 279.167,141.167 273.833,135.833 267.5,131.5C 265.754,129.748 263.754,128.415 261.5,127.5C 261.167,126.833 260.833,126.167 260.5,125.5 Z"/></g>
<g><path style="opacity:0.486" fill="#e78d89" d="M 267.5,131.5 C 273.833,135.833 279.167,141.167 283.5,147.5C 282.167,146.5 280.833,145.5 279.5,144.5C 275.5,140.167 271.5,135.833 267.5,131.5 Z"/></g>
<g><path style="opacity:0.012" fill="#010000" d="M 35.5,159.5 C 34.1667,159.833 34.1667,160.167 35.5,160.5C 35.8099,164.61 35.1432,168.61 33.5,172.5C 33.8226,168.774 33.4892,165.107 32.5,161.5C 31.1575,162.902 30.3242,162.569 30,160.5C 29.0197,151.061 29.5197,141.728 31.5,132.5C 32.7989,133.09 33.6322,134.09 34,135.5C 35.2227,143.453 35.7227,151.453 35.5,159.5 Z"/></g>
<g><path style="opacity:0.161" fill="#f3d3c9" d="M 41.5,117.5 C 42.5,117.5 43.5,117.5 44.5,117.5C 43.944,124.004 43.2774,130.504 42.5,137C 42.4313,138.986 41.7647,140.486 40.5,141.5C 40.5,138.167 40.5,134.833 40.5,131.5C 41.3136,126.881 41.6469,122.214 41.5,117.5 Z"/></g>
<g><path style="opacity:0.118" fill="#8c5750" d="M 39.5,131.5 C 39.8333,131.5 40.1667,131.5 40.5,131.5C 40.5,134.833 40.5,138.167 40.5,141.5C 40.5674,142.959 40.2341,144.292 39.5,145.5C 38.8333,145.5 38.1667,145.5 37.5,145.5C 37.5,143.167 37.5,140.833 37.5,138.5C 38.5862,138.38 39.2528,137.713 39.5,136.5C 38.5676,135.02 38.5676,133.687 39.5,132.5C 39.5,132.167 39.5,131.833 39.5,131.5 Z"/></g>
<g><path style="opacity:1" fill="#ea1008" d="M 103.5,122.5 C 104.167,123.833 105.167,124.833 106.5,125.5C 106.5,125.833 106.5,126.167 106.5,126.5C 106.261,128.467 106.594,130.301 107.5,132C 112.018,134.505 116.852,136.005 122,136.5C 139.671,136.215 157.004,136.215 174,136.5C 197.563,132.872 221.23,132.538 245,135.5C 248.646,134.117 252.146,134.451 255.5,136.5C 256.689,136.244 257.856,135.911 259,135.5C 262.557,136.734 265.557,138.734 268,141.5C 269.531,145.854 270.197,150.52 270,155.5C 265.702,162.127 259.869,166.96 252.5,170C 245.962,170.441 239.629,171.774 233.5,174C 211.527,174.168 189.861,174.334 168.5,174.5C 150.99,171.93 133.49,171.93 116,174.5C 111.102,173.045 106.269,173.211 101.5,175C 97.3073,178.531 93.8073,182.698 91,187.5C 87.6123,206.105 84.6123,224.772 82,243.5C 80.9144,249.858 78.9144,255.858 76,261.5C 73.7417,263.43 71.2417,264.93 68.5,266C 58.893,266.364 49.393,266.531 40,266.5C 36.8748,263.979 35.3748,260.646 35.5,256.5C 37.903,234.198 41.403,211.865 46,189.5C 45.2642,174.114 47.2642,159.114 52,144.5C 53.4617,134.884 54.4617,125.217 55,115.5C 55.7281,109.61 56.8948,103.943 58.5,98.5C 60.5433,84.5696 62.0433,70.5696 63,56.5C 63.663,51.1154 66.163,46.9487 70.5,44C 82.6544,41.7026 94.6544,42.2026 106.5,45.5C 107.63,52.4495 107.797,59.4495 107,66.5C 105.306,81.2994 102.473,95.7994 98.5,110C 99.3379,114.719 101.005,118.886 103.5,122.5 Z"/></g>
<g><path style="opacity:1" fill="#f10f06" d="M 39.5,250.5 C 39.8369,254.333 42.0036,256.333 46,256.5C 47.2613,256.241 48.2613,255.574 49,254.5C 49.3333,255.167 49.6667,255.833 50,256.5C 50.5194,255.484 51.3527,254.818 52.5,254.5C 56.9193,255.116 61.4193,256.116 66,257.5C 67.3685,256.297 68.8685,255.297 70.5,254.5C 71.0798,252.363 72.0798,250.53 73.5,249C 73.1667,248.667 72.8333,248.333 72.5,248C 73.4162,247.626 74.2496,247.126 75,246.5C 76.8734,238.049 78.3734,229.549 79.5,221C 79.0426,220.586 78.7093,220.086 78.5,219.5C 82.7275,210.035 84.5608,200.035 84,189.5C 85.1409,186.938 85.9743,184.272 86.5,181.5C 88.758,179.323 90.258,176.657 91,173.5C 92.1475,174.458 93.1475,174.125 94,172.5C 94.6838,171.216 94.5171,170.049 93.5,169C 94.4491,168.383 95.2825,168.549 96,169.5C 96.8333,168.5 97.6667,167.5 98.5,166.5C 108.71,167.302 118.543,165.636 128,161.5C 128.772,161.645 129.439,161.978 130,162.5C 130.192,164.577 130.692,166.577 131.5,168.5C 132.506,168.062 132.506,167.396 131.5,166.5C 133.758,165.582 136.091,164.915 138.5,164.5C 144.265,165.06 150.265,165.56 156.5,166C 157.76,167.113 158.927,167.28 160,166.5C 163.867,168.033 167.867,169.033 172,169.5C 183.128,166.848 194.294,166.848 205.5,169.5C 210.045,167.479 214.545,167.145 219,168.5C 219.945,168.095 220.612,167.428 221,166.5C 222.062,167.097 223.228,167.43 224.5,167.5C 226.535,166.796 228.535,166.129 230.5,165.5C 230.351,166.552 230.517,167.552 231,168.5C 234.543,163.997 239.043,162.331 244.5,163.5C 244.679,161.394 245.679,159.728 247.5,158.5C 250.523,156.816 253.356,154.816 256,152.5C 256.667,150.5 256.667,148.5 256,146.5C 254.294,145.692 253.461,144.359 253.5,142.5C 252.178,142.33 251.011,142.663 250,143.5C 247.848,142.115 245.515,141.115 243,140.5C 240.945,141.692 238.945,141.692 237,140.5C 235.333,141.167 233.667,141.833 232,142.5C 231.147,140.875 230.147,140.542 229,141.5C 226.546,140.802 224.213,139.802 222,138.5C 217.201,139.012 212.535,139.012 208,138.5C 202.663,139.066 197.496,140.4 192.5,142.5C 188.285,141.595 183.785,141.929 179,143.5C 177.289,143.561 175.956,142.894 175,141.5C 166.95,141.828 158.783,142.494 150.5,143.5C 149.232,142.572 147.899,142.405 146.5,143C 148.301,143.317 148.634,143.984 147.5,145C 145.888,145.72 144.388,145.554 143,144.5C 140.895,147.623 138.562,147.956 136,145.5C 135.05,146.022 134.216,146.689 133.5,147.5C 132.618,146.24 131.618,145.074 130.5,144C 121.646,143.631 113.313,141.631 105.5,138C 103.025,133.536 100.191,129.37 97,125.5C 96.3333,120.552 94.8333,115.552 92.5,110.5C 93.2149,107.291 94.3815,104.291 96,101.5C 96.6667,93.5 96.6667,85.5 96,77.5C 95.2588,76.3595 94.4255,76.3595 93.5,77.5C 92.3373,75.4503 92.5039,73.4503 94,71.5C 94.3333,71.8333 94.6667,72.1667 95,72.5C 94.958,67.1037 94.958,61.7704 95,56.5C 93.3196,53.5595 91.1529,51.0595 88.5,49C 82.8277,48.7816 77.161,48.7816 71.5,49C 70.3333,50.1667 69.1667,51.3333 68,52.5C 66.779,63.6596 65.6124,74.8263 64.5,86C 64.3594,87.9552 63.526,89.4552 62,90.5C 59.9691,111.744 57.6358,133.078 55,154.5C 54.4601,157.361 53.4601,160.028 52,162.5C 51.8117,168.748 51.3117,174.915 50.5,181C 51.0219,181.561 51.3552,182.228 51.5,183C 49.7225,191.493 48.0558,199.993 46.5,208.5C 45.838,206.696 45.5046,204.696 45.5,202.5C 46.5537,195.011 47.5537,187.511 48.5,180C 48.2077,176.427 47.8743,173.093 47.5,170C 49.9714,160.5 52.1381,150.667 54,140.5C 54.9515,126.405 56.4515,112.405 58.5,98.5C 61.5091,84.4329 63.6758,70.0996 65,55.5C 66.2143,47.9584 70.7143,44.2918 78.5,44.5C 87.6073,43.7754 95.4406,46.442 102,52.5C 102.207,56.0894 102.707,59.5894 103.5,63C 102.508,72.4682 101.341,81.9682 100,91.5C 98.683,92.68 98.5163,94.18 99.5,96C 99.1461,100.558 98.1461,104.891 96.5,109C 96.6843,111.943 96.6843,114.943 96.5,118C 97.2272,120.124 97.8938,122.291 98.5,124.5C 101.452,127.566 103.786,131.066 105.5,135C 112.524,138.29 119.857,139.79 127.5,139.5C 128.994,139.709 130.161,140.376 131,141.5C 132.299,140.02 133.966,139.354 136,139.5C 141.192,140.018 146.359,140.352 151.5,140.5C 152.696,140.154 152.696,139.654 151.5,139C 152.333,138.833 153.167,138.667 154,138.5C 167.539,138.41 180.705,138.41 193.5,138.5C 199.494,137.076 205.328,136.076 211,135.5C 226.092,136.938 241.258,138.104 256.5,139C 259.729,139.356 261.229,141.19 261,144.5C 263.828,146.747 265.328,149.747 265.5,153.5C 264.533,155.762 263.866,158.095 263.5,160.5C 262.448,160.351 261.448,160.517 260.5,161C 259.066,164.787 256.566,166.287 253,165.5C 249.447,167.48 245.781,168.146 242,167.5C 240.831,168.009 239.998,168.842 239.5,170C 235.051,171.103 230.551,171.936 226,172.5C 204.072,172.1 181.905,171.934 159.5,172C 155.748,171.538 152.248,170.372 149,168.5C 147.984,169.634 147.317,169.301 147,167.5C 145.214,169.099 143.047,169.933 140.5,170C 134.96,170.764 129.46,170.597 124,169.5C 118.926,171.531 113.759,171.864 108.5,170.5C 97.4305,173.74 90.5972,181.074 88,192.5C 85.3539,207.083 83.3539,221.749 82,236.5C 81.5597,247.507 77.2264,256.507 69,263.5C 66.9667,263.132 64.8001,263.132 62.5,263.5C 60.4549,261.525 58.7883,261.525 57.5,263.5C 55.5376,262.366 53.5376,262.366 51.5,263.5C 50.3527,263.182 49.5194,262.516 49,261.5C 48.2613,262.574 47.2613,263.241 46,263.5C 40.6945,263.531 37.8612,260.698 37.5,255C 37.5687,253.014 38.2353,251.514 39.5,250.5 Z"/></g>
<g><path style="opacity:1" fill="#f70d02" d="M 39.5,250.5 C 42.1932,236.831 44.5265,222.831 46.5,208.5C 48.0558,199.993 49.7225,191.493 51.5,183C 51.3552,182.228 51.0219,181.561 50.5,181C 51.3117,174.915 51.8117,168.748 52,162.5C 53.4601,160.028 54.4601,157.361 55,154.5C 57.6358,133.078 59.9691,111.744 62,90.5C 63.526,89.4552 64.3594,87.9552 64.5,86C 65.6124,74.8263 66.779,63.6596 68,52.5C 69.1667,51.3333 70.3333,50.1667 71.5,49C 77.161,48.7816 82.8277,48.7816 88.5,49C 91.1529,51.0595 93.3196,53.5595 95,56.5C 94.958,61.7704 94.958,67.1037 95,72.5C 94.6667,72.1667 94.3333,71.8333 94,71.5C 92.5039,73.4503 92.3373,75.4503 93.5,77.5C 94.4255,76.3595 95.2588,76.3595 96,77.5C 96.6667,85.5 96.6667,93.5 96,101.5C 94.3815,104.291 93.2149,107.291 92.5,110.5C 94.8333,115.552 96.3333,120.552 97,125.5C 100.191,129.37 103.025,133.536 105.5,138C 113.313,141.631 121.646,143.631 130.5,144C 131.618,145.074 132.618,146.24 133.5,147.5C 134.216,146.689 135.05,146.022 136,145.5C 138.562,147.956 140.895,147.623 143,144.5C 144.388,145.554 145.888,145.72 147.5,145C 148.634,143.984 148.301,143.317 146.5,143C 147.899,142.405 149.232,142.572 150.5,143.5C 158.783,142.494 166.95,141.828 175,141.5C 175.956,142.894 177.289,143.561 179,143.5C 183.785,141.929 188.285,141.595 192.5,142.5C 197.496,140.4 202.663,139.066 208,138.5C 212.535,139.012 217.201,139.012 222,138.5C 224.213,139.802 226.546,140.802 229,141.5C 230.147,140.542 231.147,140.875 232,142.5C 233.667,141.833 235.333,141.167 237,140.5C 238.945,141.692 240.945,141.692 243,140.5C 245.515,141.115 247.848,142.115 250,143.5C 251.011,142.663 252.178,142.33 253.5,142.5C 253.461,144.359 254.294,145.692 256,146.5C 256.667,148.5 256.667,150.5 256,152.5C 253.356,154.816 250.523,156.816 247.5,158.5C 245.679,159.728 244.679,161.394 244.5,163.5C 239.043,162.331 234.543,163.997 231,168.5C 230.517,167.552 230.351,166.552 230.5,165.5C 228.535,166.129 226.535,166.796 224.5,167.5C 223.228,167.43 222.062,167.097 221,166.5C 220.612,167.428 219.945,168.095 219,168.5C 214.545,167.145 210.045,167.479 205.5,169.5C 194.294,166.848 183.128,166.848 172,169.5C 167.867,169.033 163.867,168.033 160,166.5C 158.927,167.28 157.76,167.113 156.5,166C 150.265,165.56 144.265,165.06 138.5,164.5C 136.091,164.915 133.758,165.582 131.5,166.5C 132.506,167.396 132.506,168.062 131.5,168.5C 130.692,166.577 130.192,164.577 130,162.5C 129.439,161.978 128.772,161.645 128,161.5C 118.543,165.636 108.71,167.302 98.5,166.5C 97.6667,167.5 96.8333,168.5 96,169.5C 95.2825,168.549 94.4491,168.383 93.5,169C 94.5171,170.049 94.6838,171.216 94,172.5C 93.1475,174.125 92.1475,174.458 91,173.5C 90.258,176.657 88.758,179.323 86.5,181.5C 85.9743,184.272 85.1409,186.938 84,189.5C 84.5608,200.035 82.7275,210.035 78.5,219.5C 78.7093,220.086 79.0426,220.586 79.5,221C 78.3734,229.549 76.8734,238.049 75,246.5C 74.2496,247.126 73.4162,247.626 72.5,248C 72.8333,248.333 73.1667,248.667 73.5,249C 72.0798,250.53 71.0798,252.363 70.5,254.5C 68.8685,255.297 67.3685,256.297 66,257.5C 61.4193,256.116 56.9193,255.116 52.5,254.5C 51.3527,254.818 50.5194,255.484 50,256.5C 49.6667,255.833 49.3333,255.167 49,254.5C 48.2613,255.574 47.2613,256.241 46,256.5C 42.0036,256.333 39.8369,254.333 39.5,250.5 Z"/></g>
<g><path style="opacity:0.008" fill="#000000" d="M 294.5,148.5 C 293.833,148.5 293.5,148.833 293.5,149.5C 293.167,149.5 292.833,149.5 292.5,149.5C 291.167,148.833 290.167,147.833 289.5,146.5C 290.82,145.058 292.486,144.392 294.5,144.5C 294.5,145.833 294.5,147.167 294.5,148.5 Z"/></g>
<g><path style="opacity:0.011" fill="#000000" d="M 293.5,149.5 C 294.167,149.5 294.5,149.167 294.5,148.5C 295.708,147.766 297.041,147.433 298.5,147.5C 298.292,149.92 298.626,152.253 299.5,154.5C 298.594,158.554 296.76,159.22 294,156.5C 293.503,154.19 293.337,151.857 293.5,149.5 Z"/></g>
<g><path style="opacity:0.831" fill="#b45962" d="M 283.5,147.5 C 285.129,148.625 286.629,149.959 288,151.5C 288.773,153.352 288.273,154.686 286.5,155.5C 286.428,152.447 285.428,149.781 283.5,147.5 Z"/></g>
<g><path style="opacity:0.22" fill="#fddece" d="M 37.5,145.5 C 38.1667,145.5 38.8333,145.5 39.5,145.5C 40.1386,146.097 40.472,146.93 40.5,148C 39.9604,153.18 39.2937,158.347 38.5,163.5C 37.8243,162.398 37.1577,161.398 36.5,160.5C 36.1667,160.5 35.8333,160.5 35.5,160.5C 35.5,160.167 35.5,159.833 35.5,159.5C 36.2679,158.737 36.7679,157.737 37,156.5C 37.4986,152.848 37.6653,149.182 37.5,145.5 Z"/></g>
<g><path style="opacity:0.012" fill="#000000" d="M 291.5,157.5 C 294.084,158.048 295.084,159.715 294.5,162.5C 293.127,162.343 291.793,162.51 290.5,163C 291.331,166.022 289.998,167.522 286.5,167.5C 286.833,170.5 285.5,171.833 282.5,171.5C 282.833,174.5 281.5,175.833 278.5,175.5C 278.833,178.5 277.5,179.833 274.5,179.5C 274.833,182.5 273.5,183.833 270.5,183.5C 270.616,186.91 268.95,188.244 265.5,187.5C 264.266,185.602 264.599,183.935 266.5,182.5C 268.144,182.19 269.144,181.19 269.5,179.5C 270.167,179.5 270.5,179.167 270.5,178.5C 272.144,178.19 273.144,177.19 273.5,175.5C 273.5,174.833 273.833,174.5 274.5,174.5C 275.167,174.5 275.5,174.167 275.5,173.5C 276.167,173.5 276.5,173.167 276.5,172.5C 277.167,172.5 277.5,172.167 277.5,171.5C 278.167,171.5 278.5,171.167 278.5,170.5C 280.144,170.19 281.144,169.19 281.5,167.5C 282.167,167.5 282.5,167.167 282.5,166.5C 284.446,165.965 285.446,164.632 285.5,162.5C 285.833,162.5 286.167,162.5 286.5,162.5C 288.532,161.952 289.532,160.619 289.5,158.5C 290.167,158.167 290.833,157.833 291.5,157.5 Z"/></g>
<g><path style="opacity:0.012" fill="#040101" d="M 31.5,187.5 C 30.1667,187.833 30.1667,188.167 31.5,188.5C 32.404,189.209 32.7373,190.209 32.5,191.5C 31.6862,193.631 31.1862,195.964 31,198.5C 30.6174,197.944 30.1174,197.611 29.5,197.5C 29.5,194.833 29.5,192.167 29.5,189.5C 27.8762,189.64 26.7096,188.973 26,187.5C 25.0287,178.393 25.5287,169.393 27.5,160.5C 28.5836,161.665 29.4169,162.998 30,164.5C 31.2054,172.119 31.7054,179.786 31.5,187.5 Z"/></g>
<g><path style="opacity:0.004" fill="#000000" d="M 291.5,168.5 C 292.833,169.167 292.833,169.167 291.5,168.5 Z"/></g>
<g><path style="opacity:0.996" fill="#a31b18" d="M 279.5,144.5 C 280.833,145.5 282.167,146.5 283.5,147.5C 285.428,149.781 286.428,152.447 286.5,155.5C 285.026,156.436 284.026,157.77 283.5,159.5C 277.035,165.464 270.702,171.631 264.5,178C 262.922,179.094 261.255,179.928 259.5,180.5C 259.5,179.167 259.5,177.833 259.5,176.5C 262.285,177.084 263.952,176.084 264.5,173.5C 266.237,171.12 268.57,169.453 271.5,168.5C 277.267,161.394 279.934,153.394 279.5,144.5 Z"/></g>
<g><path style="opacity:0.094" fill="#54221f" d="M 35.5,160.5 C 35.8333,160.5 36.1667,160.5 36.5,160.5C 36.6659,165.511 36.4993,170.511 36,175.5C 35.9005,177.653 35.0672,179.319 33.5,180.5C 33.5,177.833 33.5,175.167 33.5,172.5C 35.1432,168.61 35.8099,164.61 35.5,160.5 Z"/></g>
<g><path style="opacity:0.992" fill="#c81813" d="M 189.5,127.5 C 213.5,127.5 237.5,127.5 261.5,127.5C 263.754,128.415 265.754,129.748 267.5,131.5C 271.5,135.833 275.5,140.167 279.5,144.5C 279.934,153.394 277.267,161.394 271.5,168.5C 268.57,169.453 266.237,171.12 264.5,173.5C 260.658,175.552 256.658,177.385 252.5,179C 204.495,179.268 156.495,179.768 108.5,180.5C 108.611,179.883 108.944,179.383 109.5,179C 156.821,177.776 204.155,177.109 251.5,177C 259.607,174.582 266.44,170.082 272,163.5C 272.29,161.048 272.956,158.715 274,156.5C 274.338,152.018 274.338,147.685 274,143.5C 269.759,138.588 264.925,134.421 259.5,131C 242.664,130.59 225.831,130.09 209,129.5C 182.196,130.8 155.363,132.134 128.5,133.5C 125.302,133.378 122.302,132.545 119.5,131C 120.416,130.722 121.082,130.222 121.5,129.5C 137.675,129.83 153.675,129.496 169.5,128.5C 175.979,127.509 182.646,127.176 189.5,127.5 Z"/></g>
<g><path style="opacity:0.604" fill="#e19889" d="M 43.5,103.5 C 43.89,106.797 44.89,109.797 46.5,112.5C 45.2072,122.469 44.2072,132.469 43.5,142.5C 42.4192,145.627 41.7526,148.96 41.5,152.5C 40.4866,159.989 39.82,167.656 39.5,175.5C 37.8746,178.891 36.8746,182.558 36.5,186.5C 36.6621,184.473 36.4955,182.473 36,180.5C 35.3292,181.252 34.4959,181.586 33.5,181.5C 33.5,181.167 33.5,180.833 33.5,180.5C 35.0672,179.319 35.9005,177.653 36,175.5C 36.4993,170.511 36.6659,165.511 36.5,160.5C 37.1577,161.398 37.8243,162.398 38.5,163.5C 39.2937,158.347 39.9604,153.18 40.5,148C 40.472,146.93 40.1386,146.097 39.5,145.5C 40.2341,144.292 40.5674,142.959 40.5,141.5C 41.7647,140.486 42.4313,138.986 42.5,137C 43.2774,130.504 43.944,124.004 44.5,117.5C 43.5,117.5 42.5,117.5 41.5,117.5C 41.5,116.833 41.5,116.167 41.5,115.5C 43.1765,114.817 43.8432,113.483 43.5,111.5C 43.5,108.833 43.5,106.167 43.5,103.5 Z"/></g>
<g><path style="opacity:1" fill="#b11f16" d="M 264.5,173.5 C 263.952,176.084 262.285,177.084 259.5,176.5C 259.5,177.833 259.5,179.167 259.5,180.5C 259.167,181.5 258.5,182.167 257.5,182.5C 213.197,183.484 168.863,183.818 124.5,183.5C 119.308,182.034 113.975,181.367 108.5,181.5C 108.5,181.167 108.5,180.833 108.5,180.5C 156.495,179.768 204.495,179.268 252.5,179C 256.658,177.385 260.658,175.552 264.5,173.5 Z"/></g>
<g><path style="opacity:0.167" fill="#f6daca" d="M 36.5,186.5 C 35.8365,188.042 35.1698,189.709 34.5,191.5C 33.8281,190.051 33.1614,188.718 32.5,187.5C 32.8333,185.5 33.1667,183.5 33.5,181.5C 34.4959,181.586 35.3292,181.252 36,180.5C 36.4955,182.473 36.6621,184.473 36.5,186.5 Z"/></g>
<g><path style="opacity:0.8" fill="#f16271" d="M 108.5,181.5 C 113.975,181.367 119.308,182.034 124.5,183.5C 124.5,183.833 124.5,184.167 124.5,184.5C 123.884,185.202 123.884,186.202 124.5,187.5C 124.167,187.5 123.833,187.5 123.5,187.5C 122.365,185.787 120.698,185.12 118.5,185.5C 112.599,184.194 106.599,184.194 100.5,185.5C 99.8333,185.5 99.1667,185.5 98.5,185.5C 98.5106,183.983 99.1772,182.816 100.5,182C 103.146,181.503 105.813,181.336 108.5,181.5 Z"/></g>
<g><path style="opacity:0.706" fill="#c77464" d="M 257.5,182.5 C 257.082,183.222 256.416,183.722 255.5,184C 222.502,184.5 189.502,184.667 156.5,184.5C 145.833,184.5 135.167,184.5 124.5,184.5C 124.5,184.167 124.5,183.833 124.5,183.5C 168.863,183.818 213.197,183.484 257.5,182.5 Z"/></g>
<g><path style="opacity:0.408" fill="#932932" d="M 118.5,185.5 C 113.489,185.334 108.489,185.501 103.5,186C 102.944,186.383 102.611,186.883 102.5,187.5C 102.5,188.167 102.5,188.833 102.5,189.5C 102.167,189.5 101.833,189.5 101.5,189.5C 100.566,188.432 100.232,187.099 100.5,185.5C 106.599,184.194 112.599,184.194 118.5,185.5 Z"/></g>
<g><path style="opacity:0.481" fill="#fac2ba" d="M 283.5,159.5 C 283.141,161.371 282.141,162.871 280.5,164C 281.094,164.464 281.761,164.631 282.5,164.5C 282.5,165.167 282.5,165.833 282.5,166.5C 281.833,166.5 281.5,166.833 281.5,167.5C 279.856,167.81 278.856,168.81 278.5,170.5C 277.833,170.5 277.5,170.833 277.5,171.5C 276.833,171.5 276.5,171.833 276.5,172.5C 275.833,172.5 275.5,172.833 275.5,173.5C 274.833,173.5 274.5,173.833 274.5,174.5C 273.833,174.5 273.5,174.833 273.5,175.5C 271.856,175.81 270.856,176.81 270.5,178.5C 269.833,178.5 269.5,178.833 269.5,179.5C 267.856,179.81 266.856,180.81 266.5,182.5C 264.326,182.75 262.659,183.75 261.5,185.5C 258.302,184.964 255.635,185.631 253.5,187.5C 252.833,187.5 252.167,187.5 251.5,187.5C 220.013,185.835 188.347,184.835 156.5,184.5C 189.502,184.667 222.502,184.5 255.5,184C 256.416,183.722 257.082,183.222 257.5,182.5C 258.5,182.167 259.167,181.5 259.5,180.5C 261.255,179.928 262.922,179.094 264.5,178C 270.702,171.631 277.035,165.464 283.5,159.5 Z"/></g>
<g><path style="opacity:0.251" fill="#ffe2d9" d="M 124.5,184.5 C 135.167,184.5 145.833,184.5 156.5,184.5C 188.347,184.835 220.013,185.835 251.5,187.5C 209.167,187.5 166.833,187.5 124.5,187.5C 123.884,186.202 123.884,185.202 124.5,184.5 Z"/></g>
<g><path style="opacity:0.011" fill="#140605" d="M 261.5,185.5 C 262.514,186.674 263.847,187.34 265.5,187.5C 265.241,191.068 263.241,192.401 259.5,191.5C 258.316,190.312 258.316,189.145 259.5,188C 257.527,187.505 255.527,187.338 253.5,187.5C 255.635,185.631 258.302,184.964 261.5,185.5 Z"/></g>
<g><path style="opacity:0.051" fill="#2f0303" d="M 118.5,185.5 C 120.698,185.12 122.365,185.787 123.5,187.5C 116.5,187.5 109.5,187.5 102.5,187.5C 102.611,186.883 102.944,186.383 103.5,186C 108.489,185.501 113.489,185.334 118.5,185.5 Z"/></g>
<g><path style="opacity:0.012" fill="#010100" d="M 27.5,214.5 C 26.1667,214.833 26.1667,215.167 27.5,215.5C 26.5663,217.227 26.5663,219.061 27.5,221C 27.3158,222.376 26.6491,223.209 25.5,223.5C 25.6633,221.143 25.4966,218.81 25,216.5C 23.6054,217.815 22.6054,217.481 22,215.5C 21.0713,206.405 21.5713,197.405 23.5,188.5C 24.5836,189.665 25.4169,190.998 26,192.5C 27.1857,199.786 27.6857,207.119 27.5,214.5 Z"/></g>
<g><path style="opacity:0.016" fill="#010000" d="M 101.5,189.5 C 101.833,189.5 102.167,189.5 102.5,189.5C 102.811,190.478 103.478,191.145 104.5,191.5C 156.167,190.171 207.833,190.171 259.5,191.5C 260.171,192.847 260.171,194.014 259.5,195C 207.596,195.831 155.763,195.664 104,194.5C 102.731,195.905 102.231,197.571 102.5,199.5C 103.833,199.5 105.167,199.5 106.5,199.5C 107.647,209.528 107.313,219.528 105.5,229.5C 103.3,227.747 102.133,225.414 102,222.5C 101.5,215.842 101.334,209.175 101.5,202.5C 101.5,202.167 101.5,201.833 101.5,201.5C 102.833,201.167 102.833,200.833 101.5,200.5C 101.5,196.833 101.5,193.167 101.5,189.5 Z"/></g>
<g><path style="opacity:0.01" fill="#000000" d="M 172.5,196.5 C 192.836,196.333 213.169,196.5 233.5,197C 234.308,197.308 234.975,197.808 235.5,198.5C 214.167,199.833 192.833,199.833 171.5,198.5C 171.863,197.817 172.196,197.15 172.5,196.5 Z"/></g>
<g><path style="opacity:0.004" fill="#000000" d="M 108.5,198.5 C 110.973,198.947 111.14,199.947 109,201.5C 108.517,200.552 108.351,199.552 108.5,198.5 Z"/></g>
<g><path style="opacity:0.724" fill="#df453b" d="M 98.5,185.5 C 98.5386,186.756 98.0386,187.756 97,188.5C 96.6667,197.167 96.3333,205.833 96,214.5C 95.6174,215.056 95.1174,215.389 94.5,215.5C 95.2213,206.192 95.7213,196.859 96,187.5C 96.7083,186.619 97.5416,185.953 98.5,185.5 Z"/></g>
<g><path style="opacity:0.004" fill="#000000" d="M 239.5,200.5 C 240.525,200.897 240.692,201.563 240,202.5C 239.536,201.906 239.369,201.239 239.5,200.5 Z"/></g>
<g><path style="opacity:0.224" fill="#9a5a4d" d="M 32.5,191.5 C 32.966,196.43 32.2994,201.097 30.5,205.5C 30.1667,205.5 29.8333,205.5 29.5,205.5C 29.5,202.833 29.5,200.167 29.5,197.5C 30.1174,197.611 30.6174,197.944 31,198.5C 31.1862,195.964 31.6862,193.631 32.5,191.5 Z"/></g>
<g><path style="opacity:0.422" fill="#e6a893" d="M 36.5,186.5 C 34.7884,194.82 33.4551,203.153 32.5,211.5C 32.6633,209.143 32.4966,206.81 32,204.5C 31.6174,205.056 31.1174,205.389 30.5,205.5C 32.2994,201.097 32.966,196.43 32.5,191.5C 32.7373,190.209 32.404,189.209 31.5,188.5C 31.5,188.167 31.5,187.833 31.5,187.5C 31.8333,187.5 32.1667,187.5 32.5,187.5C 33.1614,188.718 33.8281,190.051 34.5,191.5C 35.1698,189.709 35.8365,188.042 36.5,186.5 Z"/></g>
<g><path style="opacity:0.011" fill="#030000" d="M 237.5,217.5 C 237.817,213.298 237.483,209.298 236.5,205.5C 224.71,203.942 212.71,203.276 200.5,203.5C 189.813,203.562 179.146,203.895 168.5,204.5C 168.918,203.778 169.584,203.278 170.5,203C 192.5,202.333 214.5,202.333 236.5,203C 237.667,203.5 238.5,204.333 239,205.5C 239.784,208.76 239.617,211.927 238.5,215C 239.793,215.49 241.127,215.657 242.5,215.5C 243.559,224.986 243.059,234.32 241,243.5C 239.725,241.283 238.725,238.949 238,236.5C 237.5,230.175 237.334,223.842 237.5,217.5 Z"/></g>
<g><path style="opacity:0.216" fill="#6d2928" d="M 236.5,205.5 C 235.167,205.5 233.833,205.5 232.5,205.5C 210.833,205.5 189.167,205.5 167.5,205.5C 167.5,204.833 167.833,204.5 168.5,204.5C 179.146,203.895 189.813,203.562 200.5,203.5C 212.71,203.276 224.71,203.942 236.5,205.5 Z"/></g>
<g><path style="opacity:0.006" fill="#000000" d="M 242.5,204.5 C 243.822,204.33 244.989,204.663 246,205.5C 246.825,209.211 246.659,212.878 245.5,216.5C 244.029,215.619 243.196,214.286 243,212.5C 242.503,209.854 242.336,207.187 242.5,204.5 Z"/></g>
<g><path style="opacity:0.004" fill="#000000" d="M 163.5,205.5 C 164.833,206.167 164.833,206.167 163.5,205.5 Z"/></g>
<g><path style="opacity:0.161" fill="#fcddd9" d="M 101.5,200.5 C 101.5,200.833 101.5,201.167 101.5,201.5C 101.5,201.833 101.5,202.167 101.5,202.5C 99.7895,206.881 99.1228,211.547 99.5,216.5C 98.1803,213.572 97.5136,210.239 97.5,206.5C 97.6667,203.167 97.8333,199.833 98,196.5C 98.2492,195.376 98.7492,194.376 99.5,193.5C 100.168,195.969 100.835,198.302 101.5,200.5 Z"/></g>
<g><path style="opacity:0.012" fill="#000000" d="M 163.5,235.5 C 162.662,235.842 162.328,236.508 162.5,237.5C 161.417,237.539 160.417,237.873 159.5,238.5C 158.808,237.975 158.308,237.308 158,236.5C 157.012,226.729 157.512,217.062 159.5,207.5C 160.799,208.09 161.632,209.09 162,210.5C 163.123,218.797 163.623,227.13 163.5,235.5 Z"/></g>
<g><path style="opacity:0.716" fill="#f7948a" d="M 167.5,206.5 C 167.5,206.167 167.5,205.833 167.5,205.5C 189.167,205.5 210.833,205.5 232.5,205.5C 233.777,212.629 233.777,219.629 232.5,226.5C 232.5,220.5 232.5,214.5 232.5,208.5C 212.66,208.17 192.993,208.503 173.5,209.5C 172.4,211.277 171.566,213.277 171,215.5C 170.4,220.681 169.566,225.681 168.5,230.5C 168.662,228.473 168.495,226.473 168,224.5C 167.617,225.056 167.117,225.389 166.5,225.5C 168.6,219.133 168.933,212.8 167.5,206.5 Z"/></g>
<g><path style="opacity:0.843" fill="#e95f56" d="M 173.5,209.5 C 192.993,208.503 212.66,208.17 232.5,208.5C 232.5,214.5 232.5,220.5 232.5,226.5C 232.167,226.5 231.833,226.5 231.5,226.5C 231.5,225.5 231.5,224.5 231.5,223.5C 231.5,218.833 231.5,214.167 231.5,209.5C 212.167,209.5 192.833,209.5 173.5,209.5 Z"/></g>
<g><path style="opacity:0.037" fill="#1b0300" d="M 167.5,206.5 C 167.665,209.85 167.498,213.183 167,216.5C 166.617,217.056 166.117,217.389 165.5,217.5C 165.335,214.15 165.502,210.817 166,207.5C 166.383,206.944 166.883,206.611 167.5,206.5 Z"/></g>
<g><path style="opacity:0.012" fill="#020101" d="M 23.5,242.5 C 22.1667,242.833 22.1667,243.167 23.5,243.5C 23.282,246.366 23.1154,249.366 23,252.5C 22.6174,251.944 22.1174,251.611 21.5,251.5C 21.6633,249.143 21.4966,246.81 21,244.5C 19.6054,245.815 18.6054,245.481 18,243.5C 17.184,234.121 17.5173,224.787 19,215.5C 20.3848,216.551 21.3848,217.884 22,219.5C 23.2054,227.119 23.7054,234.786 23.5,242.5 Z"/></g>
<g><path style="opacity:0.239" fill="#f0d5d1" d="M 232.5,205.5 C 233.833,205.5 235.167,205.5 236.5,205.5C 237.483,209.298 237.817,213.298 237.5,217.5C 235.864,221.21 235.198,225.21 235.5,229.5C 234.833,229.5 234.167,229.5 233.5,229.5C 232.596,228.791 232.263,227.791 232.5,226.5C 233.777,219.629 233.777,212.629 232.5,205.5 Z"/></g>
<g><path style="opacity:0.353" fill="#e49592" d="M 98.5,185.5 C 99.1667,185.5 99.8333,185.5 100.5,185.5C 100.232,187.099 100.566,188.432 101.5,189.5C 101.5,193.167 101.5,196.833 101.5,200.5C 100.835,198.302 100.168,195.969 99.5,193.5C 98.7492,194.376 98.2492,195.376 98,196.5C 97.8333,199.833 97.6667,203.167 97.5,206.5C 97.5136,210.239 98.1803,213.572 99.5,216.5C 99.5,216.833 99.5,217.167 99.5,217.5C 97.5698,221.373 96.9031,225.706 97.5,230.5C 97.1667,230.5 96.8333,230.5 96.5,230.5C 96.665,227.15 96.4983,223.817 96,220.5C 93.5612,228.391 92.7279,236.391 93.5,244.5C 94.1835,244.137 94.8501,243.804 95.5,243.5C 95.5,244.167 95.5,244.833 95.5,245.5C 93.5864,248.684 92.9197,252.351 93.5,256.5C 93.5,256.833 93.5,257.167 93.5,257.5C 92.6862,255.369 92.1862,253.036 92,250.5C 91.3333,251.167 90.6667,251.833 90,252.5C 89.8227,256.356 89.3227,260.023 88.5,263.5C 88.5,259.833 88.5,256.167 88.5,252.5C 90.9345,241.987 92.6011,231.32 93.5,220.5C 93.6287,218.784 93.962,217.117 94.5,215.5C 95.1174,215.389 95.6174,215.056 96,214.5C 96.3333,205.833 96.6667,197.167 97,188.5C 98.0386,187.756 98.5386,186.756 98.5,185.5 Z"/></g>
<g><path style="opacity:0.012" fill="#6a271f" d="M 167.5,206.5 C 168.933,212.8 168.6,219.133 166.5,225.5C 166.167,225.5 165.833,225.5 165.5,225.5C 165.5,222.833 165.5,220.167 165.5,217.5C 166.117,217.389 166.617,217.056 167,216.5C 167.498,213.183 167.665,209.85 167.5,206.5 Z"/></g>
<g><path style="opacity:0.429" fill="#f1cabd" d="M 32.5,211.5 C 32.702,213.95 32.3686,216.283 31.5,218.5C 30.2627,223.96 29.596,229.627 29.5,235.5C 26.6453,249.18 24.9786,263.18 24.5,277.5C 23.2872,271.99 23.2872,266.323 24.5,260.5C 24.3333,259.5 24.1667,258.5 24,257.5C 23.3292,258.252 22.4959,258.586 21.5,258.5C 21.5,258.167 21.5,257.833 21.5,257.5C 22.4584,257.047 23.2917,256.381 24,255.5C 24.8119,251.311 24.6453,247.311 23.5,243.5C 23.5,243.167 23.5,242.833 23.5,242.5C 24.2679,241.737 24.7679,240.737 25,239.5C 25.4988,235.514 25.6655,231.514 25.5,227.5C 26.9311,227.119 27.7645,226.119 28,224.5C 28.4983,221.183 28.665,217.85 28.5,214.5C 29.299,211.57 29.6323,208.57 29.5,205.5C 29.8333,205.5 30.1667,205.5 30.5,205.5C 31.1174,205.389 31.6174,205.056 32,204.5C 32.4966,206.81 32.6633,209.143 32.5,211.5 Z"/></g>
<g><path style="opacity:0.976" fill="#dd110c" d="M 103.5,122.5 C 101.005,118.886 99.3379,114.719 98.5,110C 102.473,95.7994 105.306,81.2994 107,66.5C 107.797,59.4495 107.63,52.4495 106.5,45.5C 94.6544,42.2026 82.6544,41.7026 70.5,44C 66.163,46.9487 63.663,51.1154 63,56.5C 62.0433,70.5696 60.5433,84.5696 58.5,98.5C 56.8948,103.943 55.7281,109.61 55,115.5C 54.4617,125.217 53.4617,134.884 52,144.5C 47.2642,159.114 45.2642,174.114 46,189.5C 41.403,211.865 37.903,234.198 35.5,256.5C 35.3748,260.646 36.8748,263.979 40,266.5C 49.393,266.531 58.893,266.364 68.5,266C 71.2417,264.93 73.7417,263.43 76,261.5C 78.9144,255.858 80.9144,249.858 82,243.5C 84.6123,224.772 87.6123,206.105 91,187.5C 93.8073,182.698 97.3073,178.531 101.5,175C 106.269,173.211 111.102,173.045 116,174.5C 133.49,171.93 150.99,171.93 168.5,174.5C 189.861,174.334 211.527,174.168 233.5,174C 239.629,171.774 245.962,170.441 252.5,170C 259.869,166.96 265.702,162.127 270,155.5C 270.197,150.52 269.531,145.854 268,141.5C 265.557,138.734 262.557,136.734 259,135.5C 257.856,135.911 256.689,136.244 255.5,136.5C 252.146,134.451 248.646,134.117 245,135.5C 221.23,132.538 197.563,132.872 174,136.5C 157.004,136.215 139.671,136.215 122,136.5C 116.852,136.005 112.018,134.505 107.5,132C 106.594,130.301 106.261,128.467 106.5,126.5C 107.708,127.234 109.041,127.567 110.5,127.5C 113.946,128.687 117.613,129.354 121.5,129.5C 121.082,130.222 120.416,130.722 119.5,131C 122.302,132.545 125.302,133.378 128.5,133.5C 155.363,132.134 182.196,130.8 209,129.5C 225.831,130.09 242.664,130.59 259.5,131C 264.925,134.421 269.759,138.588 274,143.5C 274.338,147.685 274.338,152.018 274,156.5C 272.956,158.715 272.29,161.048 272,163.5C 266.44,170.082 259.607,174.582 251.5,177C 204.155,177.109 156.821,177.776 109.5,179C 108.944,179.383 108.611,179.883 108.5,180.5C 108.5,180.833 108.5,181.167 108.5,181.5C 105.813,181.336 103.146,181.503 100.5,182C 99.1772,182.816 98.5106,183.983 98.5,185.5C 97.5416,185.953 96.7083,186.619 96,187.5C 95.7213,196.859 95.2213,206.192 94.5,215.5C 93.962,217.117 93.6287,218.784 93.5,220.5C 92.2058,221.29 91.0391,222.29 90,223.5C 89.6667,222.833 89.3333,222.167 89,221.5C 88.5291,223.246 87.8624,224.913 87,226.5C 86.2562,233.85 85.4229,241.183 84.5,248.5C 82.3855,252.954 80.8855,257.621 80,262.5C 78.5126,264.985 76.6792,267.152 74.5,269C 62.252,271.096 49.9187,271.762 37.5,271C 35.3513,269.848 33.518,268.348 32,266.5C 30.6484,257.736 31.9818,249.403 36,241.5C 36.5581,223.926 38.8915,206.593 43,189.5C 41.9221,171.038 44.2555,153.038 50,135.5C 51.1972,118.652 53.5306,101.985 57,85.5C 57.4186,84.3279 58.0853,83.3279 59,82.5C 60.267,71.5292 61.1003,60.5292 61.5,49.5C 61.5,49.1667 61.5,48.8333 61.5,48.5C 63.5,47.024 65.1666,45.1906 66.5,43C 68.5,42.3333 70.5,41.6667 72.5,41C 84.1986,40.232 95.8653,40.5653 107.5,42C 108,42.5 108.5,43 109,43.5C 109.2,55.5037 108.867,67.5037 108,79.5C 105.447,88.7798 103.613,98.1131 102.5,107.5C 102.64,110.043 103.306,112.377 104.5,114.5C 103.607,117.084 103.274,119.751 103.5,122.5 Z"/></g>
<g><path style="opacity:0.059" fill="#773f32" d="M 27.5,214.5 C 27.8333,214.5 28.1667,214.5 28.5,214.5C 28.665,217.85 28.4983,221.183 28,224.5C 27.7645,226.119 26.9311,227.119 25.5,227.5C 25.5,226.167 25.5,224.833 25.5,223.5C 26.6491,223.209 27.3158,222.376 27.5,221C 26.5663,219.061 26.5663,217.227 27.5,215.5C 27.5,215.167 27.5,214.833 27.5,214.5 Z"/></g>
<g><path style="opacity:0.012" fill="#0b0100" d="M 99.5,217.5 C 99.7892,221.106 99.4558,224.606 98.5,228C 99.7932,228.49 101.127,228.657 102.5,228.5C 102.701,231.508 103.034,234.508 103.5,237.5C 103.129,244.326 102.295,250.993 101,257.5C 99.2494,255.51 98.2494,253.177 98,250.5C 97.5004,243.842 97.3337,237.175 97.5,230.5C 96.9031,225.706 97.5698,221.373 99.5,217.5 Z"/></g>
<g><path style="opacity:0.745" fill="#bc6355" d="M 31.5,218.5 C 31.784,224.417 31.1173,230.084 29.5,235.5C 29.596,229.627 30.2627,223.96 31.5,218.5 Z"/></g>
<g><path style="opacity:0.139" fill="#fbdbd4" d="M 96.5,230.5 C 95.7051,234.785 95.3718,239.119 95.5,243.5C 94.8501,243.804 94.1835,244.137 93.5,244.5C 92.7279,236.391 93.5612,228.391 96,220.5C 96.4983,223.817 96.665,227.15 96.5,230.5 Z"/></g>
<g><path style="opacity:0.012" fill="#000000" d="M 159.5,263.5 C 158.662,263.842 158.328,264.508 158.5,265.5C 157.833,265.5 157.5,265.833 157.5,266.5C 155.876,266.64 154.71,265.973 154,264.5C 153.184,255.121 153.517,245.787 155,236.5C 156.385,237.551 157.385,238.884 158,240.5C 159.205,248.119 159.705,255.786 159.5,263.5 Z"/></g>
<g><path style="opacity:0.522" fill="#da7d7e" d="M 231.5,226.5 C 231.833,226.5 232.167,226.5 232.5,226.5C 232.263,227.791 232.596,228.791 233.5,229.5C 233.5,233.833 233.5,238.167 233.5,242.5C 232.834,239.642 232.167,236.642 231.5,233.5C 229.943,239.731 228.943,246.065 228.5,252.5C 227.833,253.5 227.167,254.5 226.5,255.5C 227.966,250.307 228.633,244.973 228.5,239.5C 228.674,237.139 229.007,234.806 229.5,232.5C 229.604,230.297 230.27,228.297 231.5,226.5 Z"/></g>
<g><path style="opacity:0.006" fill="#291715" d="M 162.5,237.5 C 162.833,237.5 163.167,237.5 163.5,237.5C 163.938,237.435 164.272,237.601 164.5,238C 164.167,241.572 163.167,244.739 161.5,247.5C 161.253,244.061 161.586,240.728 162.5,237.5 Z"/></g>
<g><path style="opacity:0.012" fill="#0b0100" d="M 233.5,229.5 C 234.167,229.5 234.833,229.5 235.5,229.5C 235.766,233.571 235.433,237.571 234.5,241.5C 235.557,241.906 236.891,241.906 238.5,241.5C 239.602,250.657 239.102,259.657 237,268.5C 235.561,266.725 234.561,264.725 234,262.5C 233.5,256.175 233.334,249.842 233.5,243.5C 233.5,243.167 233.5,242.833 233.5,242.5C 233.5,238.167 233.5,233.833 233.5,229.5 Z"/></g>
<g><path style="opacity:0.012" fill="#000000" d="M 19.5,275.5 C 18.5714,276.936 17.4048,278.269 16,279.5C 14.9563,278.377 14.2896,277.044 14,275.5C 13.0589,264.75 13.5589,254.084 15.5,243.5C 16.5836,244.665 17.4169,245.998 18,247.5C 19.1823,256.796 19.6823,266.13 19.5,275.5 Z"/></g>
<g><path style="opacity:0.998" fill="#c9150f" d="M 61.5,49.5 C 61.1003,60.5292 60.267,71.5292 59,82.5C 58.0853,83.3279 57.4186,84.3279 57,85.5C 53.5306,101.985 51.1972,118.652 50,135.5C 44.2555,153.038 41.9221,171.038 43,189.5C 38.8915,206.593 36.5581,223.926 36,241.5C 31.9818,249.403 30.6484,257.736 32,266.5C 33.518,268.348 35.3513,269.848 37.5,271C 49.9187,271.762 62.252,271.096 74.5,269C 76.6792,267.152 78.5126,264.985 80,262.5C 80.8855,257.621 82.3855,252.954 84.5,248.5C 85.4229,241.183 86.2562,233.85 87,226.5C 87.8624,224.913 88.5291,223.246 89,221.5C 89.3333,222.167 89.6667,222.833 90,223.5C 91.0391,222.29 92.2058,221.29 93.5,220.5C 92.6011,231.32 90.9345,241.987 88.5,252.5C 87.7021,255.171 87.0354,258.004 86.5,261C 84.1903,264.969 81.5236,268.635 78.5,272C 76.3921,272.36 74.3921,273.027 72.5,274C 59.8333,274.667 47.1667,274.667 34.5,274C 30.5526,270.243 28.8859,265.576 29.5,260C 30.4433,254.157 31.6099,248.323 33,242.5C 33.499,238.179 33.6657,233.846 33.5,229.5C 33.3339,223.824 33.5006,218.157 34,212.5C 34.7267,204.26 36.7267,196.26 40,188.5C 40.8136,183.98 40.647,179.646 39.5,175.5C 39.82,167.656 40.4866,159.989 41.5,152.5C 42.1174,152.611 42.6174,152.944 43,153.5C 43.3333,151.167 43.6667,148.833 44,146.5C 46.6278,142.963 48.2945,138.963 49,134.5C 49.6667,123.833 50.3333,113.167 51,102.5C 53.8552,91.5898 56.5218,80.5898 59,69.5C 59.128,62.599 59.9614,55.9324 61.5,49.5 Z"/></g>
<g><path style="opacity:0.078" fill="#915851" d="M 23.5,243.5 C 24.6453,247.311 24.8119,251.311 24,255.5C 23.2917,256.381 22.4584,257.047 21.5,257.5C 21.5,255.5 21.5,253.5 21.5,251.5C 22.1174,251.611 22.6174,251.944 23,252.5C 23.1154,249.366 23.282,246.366 23.5,243.5 Z"/></g>
<g><path style="opacity:0.985" fill="#d1130f" d="M 231.5,223.5 C 231.5,224.5 231.5,225.5 231.5,226.5C 230.27,228.297 229.604,230.297 229.5,232.5C 227.795,235.287 226.628,234.954 226,231.5C 225.33,234.174 224.163,236.507 222.5,238.5C 223.002,232.495 223.168,226.495 223,220.5C 221.985,217.898 220.152,216.065 217.5,215C 205.756,214.232 194.089,214.899 182.5,217C 179.999,219.139 177.832,221.639 176,224.5C 173.374,237.719 172.374,251.052 173,264.5C 173.933,268.395 176.433,270.562 180.5,271C 189.833,271.667 199.167,271.667 208.5,271C 213.325,269.34 216.658,266.174 218.5,261.5C 217.944,267.225 214.944,271.058 209.5,273C 197.379,274.107 185.379,273.44 173.5,271C 173,270.5 172.5,270 172,269.5C 170.983,252.754 171.649,236.087 174,219.5C 177.677,215.577 182.177,213.077 187.5,212C 198.134,210.596 208.801,210.262 219.5,211C 223.284,212.792 226.451,215.292 229,218.5C 229.374,220.491 230.207,222.158 231.5,223.5 Z"/></g>
<g><path style="opacity:0.035" fill="#300803" d="M 95.5,245.5 C 95.6773,249.234 95.3439,252.901 94.5,256.5C 94.1667,256.5 93.8333,256.5 93.5,256.5C 92.9197,252.351 93.5864,248.684 95.5,245.5 Z"/></g>
<g><path style="opacity:0.114" fill="#fddbdc" d="M 233.5,242.5 C 233.5,242.833 233.5,243.167 233.5,243.5C 231.75,247.183 231.083,251.183 231.5,255.5C 229.121,256.567 228.121,255.567 228.5,252.5C 228.943,246.065 229.943,239.731 231.5,233.5C 232.167,236.642 232.834,239.642 233.5,242.5 Z"/></g>
<g><path style="opacity:0.012" fill="#000000" d="M 93.5,258.5 C 93.5,258.167 93.5,257.833 93.5,257.5C 94.1667,257.5 94.5,257.167 94.5,256.5C 95.6879,255.316 96.8545,255.316 98,256.5C 99.4574,263.461 99.4574,270.461 98,277.5C 95.9098,278.791 94.5764,278.124 94,275.5C 93.5006,269.843 93.3339,264.176 93.5,258.5 Z"/></g>
<g><path style="opacity:0.406" fill="#dea5a2" d="M 228.5,252.5 C 228.121,255.567 229.121,256.567 231.5,255.5C 231.5,256.167 231.5,256.833 231.5,257.5C 229.598,260.337 228.931,263.671 229.5,267.5C 229.5,267.833 229.5,268.167 229.5,268.5C 228.542,268.047 227.708,267.381 227,266.5C 226.015,268.175 225.181,269.842 224.5,271.5C 225.167,266.167 225.833,260.833 226.5,255.5C 227.167,254.5 227.833,253.5 228.5,252.5 Z"/></g>
<g><path style="opacity:0.996" fill="#c01611" d="M 173.5,209.5 C 192.833,209.5 212.167,209.5 231.5,209.5C 231.5,214.167 231.5,218.833 231.5,223.5C 230.207,222.158 229.374,220.491 229,218.5C 226.451,215.292 223.284,212.792 219.5,211C 208.801,210.262 198.134,210.596 187.5,212C 182.177,213.077 177.677,215.577 174,219.5C 171.649,236.087 170.983,252.754 172,269.5C 172.5,270 173,270.5 173.5,271C 185.379,273.44 197.379,274.107 209.5,273C 214.944,271.058 217.944,267.225 218.5,261.5C 220.847,254.094 222.18,246.427 222.5,238.5C 224.163,236.507 225.33,234.174 226,231.5C 226.628,234.954 227.795,235.287 229.5,232.5C 229.007,234.806 228.674,237.139 228.5,239.5C 225.591,247.765 223.091,256.431 221,265.5C 219.498,268.018 217.998,270.518 216.5,273C 214.5,273.667 212.5,274.333 210.5,275C 198.454,275.812 186.454,275.646 174.5,274.5C 172.022,272.829 170.522,270.496 170,267.5C 168.578,247.986 169.745,228.653 173.5,209.5 Z"/></g>
<g><path style="opacity:0.114" fill="#fef1e8" d="M 24.5,277.5 C 25.6085,278.29 26.9419,278.79 28.5,279C 27.5842,279.278 26.9175,279.778 26.5,280.5C 24.5,280.5 22.5,280.5 20.5,280.5C 20.7373,279.209 20.404,278.209 19.5,277.5C 19.5,276.833 19.5,276.167 19.5,275.5C 20.29,274.391 20.79,273.058 21,271.5C 21.499,267.179 21.6657,262.846 21.5,258.5C 22.4959,258.586 23.3292,258.252 24,257.5C 24.1667,258.5 24.3333,259.5 24.5,260.5C 23.2872,266.323 23.2872,271.99 24.5,277.5 Z"/></g>
<g><path style="opacity:0.997" fill="#e1110c" d="M 222.5,238.5 C 222.18,246.427 220.847,254.094 218.5,261.5C 216.658,266.174 213.325,269.34 208.5,271C 199.167,271.667 189.833,271.667 180.5,271C 176.433,270.562 173.933,268.395 173,264.5C 172.374,251.052 173.374,237.719 176,224.5C 177.832,221.639 179.999,219.139 182.5,217C 194.089,214.899 205.756,214.232 217.5,215C 220.152,216.065 221.985,217.898 223,220.5C 223.168,226.495 223.002,232.495 222.5,238.5 Z"/></g>
<g><path style="opacity:1" fill="#f10f04" d="M 193.5,217.5 C 201.827,218.057 210.16,218.39 218.5,218.5C 219.531,219.7 220.365,221.034 221,222.5C 221.667,227.833 221.667,233.167 221,238.5C 218.584,247.035 216.084,255.535 213.5,264C 212.167,264.667 210.833,265.333 209.5,266C 203.001,266.916 196.501,267.75 190,268.5C 186.368,267.717 182.868,266.551 179.5,265C 177.455,262.414 175.789,259.58 174.5,256.5C 175.887,245.842 177.387,235.175 179,224.5C 183.005,220.338 187.838,218.005 193.5,217.5 Z"/></g>
<g><path style="opacity:0.02" fill="#320b08" d="M 231.5,257.5 C 231.658,260.902 231.324,264.236 230.5,267.5C 230.167,267.5 229.833,267.5 229.5,267.5C 228.931,263.671 229.598,260.337 231.5,257.5 Z"/></g>
<g><path style="opacity:0.009" fill="#000000" d="M 150.5,265.5 C 151.496,265.414 152.329,265.748 153,266.5C 153.989,269.456 154.822,272.456 155.5,275.5C 152.28,283.517 150.28,283.017 149.5,274C 150.031,271.183 150.364,268.35 150.5,265.5 Z"/></g>
<g><path style="opacity:0.013" fill="#1a1211" d="M 158.5,265.5 C 158.833,265.5 159.167,265.5 159.5,265.5C 160.404,266.209 160.737,267.209 160.5,268.5C 160.5,272.833 160.5,277.167 160.5,281.5C 181.503,281.667 202.503,281.5 223.5,281C 224.384,279.28 225.717,278.114 227.5,277.5C 227.671,279.993 226.671,281.826 224.5,283C 202.833,283.667 181.167,283.667 159.5,283C 159,282.5 158.5,282 158,281.5C 157.501,276.511 157.334,271.511 157.5,266.5C 158.167,266.5 158.5,266.167 158.5,265.5 Z"/></g>
<g><path style="opacity:0.011" fill="#000000" d="M 229.5,269.5 C 229.5,269.167 229.5,268.833 229.5,268.5C 230.167,268.5 230.5,268.167 230.5,267.5C 231.688,266.316 232.855,266.316 234,267.5C 236.491,272.992 235.825,277.992 232,282.5C 231.085,281.672 230.419,280.672 230,279.5C 229.502,276.183 229.335,272.85 229.5,269.5 Z"/></g>
<g><path style="opacity:1" fill="#b1392f" d="M 39.5,175.5 C 40.647,179.646 40.8136,183.98 40,188.5C 36.7267,196.26 34.7267,204.26 34,212.5C 33.5006,218.157 33.3339,223.824 33.5,229.5C 31.3305,239.628 29.3305,249.961 27.5,260.5C 27.6891,265.699 29.0224,270.532 31.5,275C 46.1667,275.667 60.8333,275.667 75.5,275C 78.9457,274.339 82.2791,273.505 85.5,272.5C 85.7135,274.144 85.3802,275.644 84.5,277C 64.5028,277.5 44.5028,277.667 24.5,277.5C 24.9786,263.18 26.6453,249.18 29.5,235.5C 31.1173,230.084 31.784,224.417 31.5,218.5C 32.3686,216.283 32.702,213.95 32.5,211.5C 33.4551,203.153 34.7884,194.82 36.5,186.5C 36.8746,182.558 37.8746,178.891 39.5,175.5 Z"/></g>
<g><path style="opacity:0.931" fill="#a12b21" d="M 167.5,237.5 C 168.5,248.18 168.167,258.846 166.5,269.5C 167.478,271.777 168.145,274.11 168.5,276.5C 166.833,276.5 165.167,276.5 163.5,276.5C 163.9,270.171 164.233,263.838 164.5,257.5C 165.94,250.896 166.94,244.229 167.5,237.5 Z"/></g>
<g><path style="opacity:0.998" fill="#b21612" d="M 33.5,229.5 C 33.6657,233.846 33.499,238.179 33,242.5C 31.6099,248.323 30.4433,254.157 29.5,260C 28.8859,265.576 30.5526,270.243 34.5,274C 47.1667,274.667 59.8333,274.667 72.5,274C 74.3921,273.027 76.3921,272.36 78.5,272C 81.5236,268.635 84.1903,264.969 86.5,261C 87.0354,258.004 87.7021,255.171 88.5,252.5C 88.5,256.167 88.5,259.833 88.5,263.5C 87.184,266.408 86.184,269.408 85.5,272.5C 82.2791,273.505 78.9457,274.339 75.5,275C 60.8333,275.667 46.1667,275.667 31.5,275C 29.0224,270.532 27.6891,265.699 27.5,260.5C 29.3305,249.961 31.3305,239.628 33.5,229.5 Z"/></g>
<g><path style="opacity:0.998" fill="#b3221e" d="M 173.5,209.5 C 169.745,228.653 168.578,247.986 170,267.5C 170.522,270.496 172.022,272.829 174.5,274.5C 186.454,275.646 198.454,275.812 210.5,275C 212.5,274.333 214.5,273.667 216.5,273C 217.998,270.518 219.498,268.018 221,265.5C 223.091,256.431 225.591,247.765 228.5,239.5C 228.633,244.973 227.966,250.307 226.5,255.5C 225.833,260.833 225.167,266.167 224.5,271.5C 224.727,273.933 223.727,275.599 221.5,276.5C 203.833,276.5 186.167,276.5 168.5,276.5C 168.145,274.11 167.478,271.777 166.5,269.5C 168.167,258.846 168.5,248.18 167.5,237.5C 168.468,235.393 168.802,233.059 168.5,230.5C 169.566,225.681 170.4,220.681 171,215.5C 171.566,213.277 172.4,211.277 173.5,209.5 Z"/></g>
<g><path style="opacity:0.008" fill="#1f0802" d="M 91.5,273.5 C 91.634,275.292 91.3007,276.958 90.5,278.5C 90.1667,278.5 89.8333,278.5 89.5,278.5C 89.1201,276.302 89.7868,274.635 91.5,273.5 Z"/></g>
<g><path style="opacity:0.776" fill="#e27574" d="M 164.5,257.5 C 164.233,263.838 163.9,270.171 163.5,276.5C 165.167,276.5 166.833,276.5 168.5,276.5C 186.167,276.5 203.833,276.5 221.5,276.5C 202.341,277.497 183.007,277.83 163.5,277.5C 162.281,270.783 162.614,264.117 164.5,257.5 Z"/></g>
<g><path style="opacity:0.43" fill="#f9cbcb" d="M 93.5,257.5 C 93.5,257.833 93.5,258.167 93.5,258.5C 92.7321,259.263 92.2321,260.263 92,261.5C 91.5012,265.486 91.3345,269.486 91.5,273.5C 89.7868,274.635 89.1201,276.302 89.5,278.5C 88.1007,279.89 86.4341,280.89 84.5,281.5C 65.3316,279.549 45.9983,279.215 26.5,280.5C 26.9175,279.778 27.5842,279.278 28.5,279C 26.9419,278.79 25.6085,278.29 24.5,277.5C 44.5028,277.667 64.5028,277.5 84.5,277C 85.3802,275.644 85.7135,274.144 85.5,272.5C 86.184,269.408 87.184,266.408 88.5,263.5C 89.3227,260.023 89.8227,256.356 90,252.5C 90.6667,251.833 91.3333,251.167 92,250.5C 92.1862,253.036 92.6862,255.369 93.5,257.5 Z"/></g>
<g><path style="opacity:0.004" fill="#000000" d="M 90.5,278.5 C 91.5,278.5 92.5,278.5 93.5,278.5C 92.5,283.833 91.5,283.833 90.5,278.5 Z"/></g>
<g><path style="opacity:0.422" fill="#f7d3ca" d="M 168.5,230.5 C 168.802,233.059 168.468,235.393 167.5,237.5C 166.94,244.229 165.94,250.896 164.5,257.5C 162.614,264.117 162.281,270.783 163.5,277.5C 174.993,278.331 186.659,278.831 198.5,279C 186.454,279.187 174.454,279.687 162.5,280.5C 161.833,276.353 161.166,272.353 160.5,268.5C 160.737,267.209 160.404,266.209 159.5,265.5C 159.5,264.833 159.5,264.167 159.5,263.5C 160.222,263.082 160.722,262.416 161,261.5C 161.499,256.845 161.666,252.179 161.5,247.5C 163.167,244.739 164.167,241.572 164.5,238C 164.272,237.601 163.938,237.435 163.5,237.5C 163.5,236.833 163.5,236.167 163.5,235.5C 164.222,235.082 164.722,234.416 165,233.5C 165.497,230.854 165.664,228.187 165.5,225.5C 165.833,225.5 166.167,225.5 166.5,225.5C 167.117,225.389 167.617,225.056 168,224.5C 168.495,226.473 168.662,228.473 168.5,230.5 Z"/></g>
<g><path style="opacity:0.356" fill="#e7b5b3" d="M 229.5,268.5 C 229.5,268.833 229.5,269.167 229.5,269.5C 228.232,271.905 227.565,274.572 227.5,277.5C 225.717,278.114 224.384,279.28 223.5,281C 202.503,281.5 181.503,281.667 160.5,281.5C 160.5,277.167 160.5,272.833 160.5,268.5C 161.166,272.353 161.833,276.353 162.5,280.5C 174.454,279.687 186.454,279.187 198.5,279C 186.659,278.831 174.993,278.331 163.5,277.5C 183.007,277.83 202.341,277.497 221.5,276.5C 223.727,275.599 224.727,273.933 224.5,271.5C 225.181,269.842 226.015,268.175 227,266.5C 227.708,267.381 228.542,268.047 229.5,268.5 Z"/></g>
<g><path style="opacity:0.267" fill="#bf8a88" d="M 19.5,277.5 C 20.404,278.209 20.7373,279.209 20.5,280.5C 22.5,280.5 24.5,280.5 26.5,280.5C 45.9983,279.215 65.3316,279.549 84.5,281.5C 62.8333,281.5 41.1667,281.5 19.5,281.5C 18.1667,280.167 18.1667,278.833 19.5,277.5 Z"/></g>
<g><path style="opacity:0.011" fill="#120301" d="M 19.5,281.5 C 41.1667,281.5 62.8333,281.5 84.5,281.5C 84.0825,282.222 83.4158,282.722 82.5,283C 62.1667,283.667 41.8333,283.667 21.5,283C 20.5842,282.722 19.9175,282.222 19.5,281.5 Z"/></g>
<g><path style="opacity:0.005" fill="#000000" d="M 83.5,283.5 C 85.7505,283.181 87.7505,283.681 89.5,285C 88.0031,287.207 86.0031,287.874 83.5,287C 82.3157,285.855 82.3157,284.688 83.5,283.5 Z"/></g>
<g><path style="opacity:0.004" fill="#000000" d="M 73.5,284.5 C 75.7505,284.181 77.7505,284.681 79.5,286C 76.6029,287.772 73.6029,287.772 70.5,286C 71.7375,285.768 72.7375,285.268 73.5,284.5 Z"/></g>
<g><path style="opacity:0.004" fill="#000000" d="M 226.5,284.5 C 227.833,285.167 227.833,285.167 226.5,284.5 Z"/></g>
<g><path style="opacity:0.006" fill="#000000" d="M 26.5,287.5 C 42.5472,287.138 58.5472,287.804 74.5,289.5C 77.9562,288.288 81.2895,288.454 84.5,290C 64.3156,291.653 43.9823,291.986 23.5,291C 22.6919,290.692 22.0253,290.192 21.5,289.5C 23.2914,288.83 24.9581,288.163 26.5,287.5 Z"/></g>
<g><path style="opacity:0.006" fill="#000000" d="M 163.5,287.5 C 182.836,287.333 202.17,287.5 221.5,288C 223.886,288.284 224.552,289.284 223.5,291C 202.833,291.667 182.167,291.667 161.5,291C 161.043,290.586 160.709,290.086 160.5,289.5C 161.602,288.824 162.602,288.158 163.5,287.5 Z"/></g>
</svg>
